<?xml version="1.0" encoding="utf-8"?>
<!-- Generator: Adobe Illustrator 19.2.0, SVG Export Plug-In . SVG Version: 6.00 Build 0)  -->
<svg version="1.1" id="Capa_1" xmlns="http://www.w3.org/2000/svg" xmlns:xlink="http://www.w3.org/1999/xlink" x="0px" y="0px"
	 viewBox="0 0 2032.5 1555" enable-background="new 0 0 2032.5 1555" xml:space="preserve">
<g id="Capa_2">
	<circle fill="#D7EEFF" cx="996.3" cy="712.3" r="544.6"/>
</g>
<g id="Capa_1_1_">
	<path fill="#2D3130" d="M1338.5-0.5c1.1,2.6,0.9,5.3,0.9,8c0,127.2,0,254.4,0,381.6c0,1.3,0,2.6,0,3.8c0.1,1.6-0.3,3.4,0.4,4.7
		c0.7,1.6,2.8,1.1,4.4,1.5c17.9,4.7,24.7,26.7,12.6,40.7c-0.8,1-1.8,1.8-2.6,2.8c-0.3,0.4-0.2,1,0.3,1.1c0.6,0.2,1.3,0.2,1.9,0.3
		c37.3,2.8,72.2,13.3,104.7,31.6c1,0.5,1.9,1.1,2.9,1.7c1.8,1,2.3,0.7,2.4-1.2c0.1-15,6.7-27.1,17.4-37.1c9.6-9,20.9-14.6,33.8-17
		c6-1.1,12-2.1,17.9-3.4c9.9-2.1,19.4-5.3,28.8-9c1.3-0.5,2.7-1.1,4.1-1.4c1.7-0.4,3.2,1,3,2.8c-0.2,1.6-0.6,3.1-1,4.7
		c-2.8,13-4.7,26.1-4.5,39.5c0.1,7.2-0.4,14.4-1.9,21.5c-2.1,9.4-6.3,17.7-12,25.4c-0.8,1-1.6,2-2.3,3.1c-0.3,0.4-0.1,0.9,0.4,1.1
		c0.1,0.1,0.3,0.1,0.5,0.1c5.3,0,10.6,0,15.8,0.1c1.6,0,2.6-0.9,3.7-1.9c3.3-3.2,6.6-6.5,10-9.6c3.9-3.6,8.1-6.8,12.6-9.6
		c2.7-1.7,5.6-3.2,8.6-4.2c2.3-0.8,4.7-1.1,7.1-1c8.5,0.4,13.4,9.3,9.3,16.8c-0.6,1.1-1.9,2.1-1.9,3.2s1.2,2.1,1.8,3.2
		c2.1,3.8,2.1,7.6,0,11.5c-0.5,0.8-1.1,1.6-1.6,2.4c-0.4,0.6-0.3,1.2,0.1,1.8c0.6,0.9,1.3,1.8,1.8,2.8c3.7,7.4-1.3,15.9-9.6,16.3
		c-2.9,0.1-5.7-0.5-8.4-1.6c-3.6-1.4-6.9-3.4-10-5.6c-6.4-4.5-12.2-9.8-17.8-15.4c-0.5-0.5-0.9-0.9-1.3-1.4
		c-1.7-2.2-3.9-2.9-6.7-2.9c-5.9,0.1-11.8,0-17.8-0.1c-1.6,0-3.1,0.2-4.5,1.3c-5.7,4.6-12.2,7.5-19.4,9.1c-1.3,0.3-1.5,0.8-0.5,1.9
		c0.8,1,1.7,1.9,2.6,2.9c29.2,32.6,48.7,70.3,58.4,113c2.3,10,3.8,20.1,4.9,30.3c0.1,0.8,0.2,1.6,0.3,2.4c0.2,1.1,0.8,1.2,1.7,0.9
		c1.1-0.4,2.1-0.8,3.1-1.2c11.5-4.4,23-8.8,34.5-13.2c1.5-0.6,3-1.1,4.5-1.6c5.7-1.6,10.5,0,14.4,4.2s4.8,9.3,2.8,14.7
		c-0.5,1.3-1.2,2.6-1.8,3.9c-13.7,29.3-27.3,58.5-41,87.8c-0.5,1-0.9,2-1.4,3.1c-0.4,1-0.1,1.6,0.9,1.5c0.5,0,1-0.1,1.4-0.2
		c20.1-3.9,40.2-7.8,60.3-11.7c8.9-1.7,17.9-3.5,26.8-5.2c4.1-0.8,7.9-0.6,11.6,1.7c6.7,4.2,9.1,12.8,5.3,19.7
		c-1.1,2-2.4,3.7-3.7,5.6c-38.4,54.6-76.7,109.1-115.1,163.7c-4.1,5.9-3.3,3.6-3.4,10.5c-0.1,6.4,0,12.8,0,19.2c0,0.5,0,1,0.5,1.2
		s0.9-0.1,1.3-0.4c1-0.8,1.9-1.7,2.9-2.5c42.2-37,84.5-74,126.7-111c15.4-13.5,38.5-10.2,49.6,7.1c0.7,1.1,1.3,2.2,2,3.3
		c11.7,19.9,23.3,39.7,35,59.6c2.4,4,4.2,8.2,4.9,12.9c1.1,6.3,0.3,12.5-2.3,18.3c-1.1,2.4-1,4.4,0.1,6.8c1.2,2.7,2,5.7,2.9,8.6
		c6,20.2,11.9,40.5,17.9,60.7c0.8,2.6,1.6,5.2,1.7,7.9c0,0.9,0.5,1.8,0.8,2.7c0,2.2,0,4.5,0,6.7c-0.6,1-0.8,2.1-0.8,3.2
		c0,2.8-1,5.4-2.2,7.8c-6.3,11.9-16,18.7-29.6,18.8c-25.1,0.1-50.2-0.2-75.3-0.3c-0.6,0-1.3,0-1.9,0c-19.7-0.1-39.3-0.1-59-0.2
		c-17.6-0.1-35.2-0.2-52.8-0.3c-1.4,0-2.9,0-4.3,0.1c-0.9,0.1-0.9,0.8-0.6,1.4c0.5,1,1.1,1.9,1.6,2.9c4.5,10.2-3.1,20.6-12.8,20.6
		c-1.3,0-2.6,0-3.8,0c-168.4,0-336.9,0-505.4,0c-1.6,0-3.2,0.1-4.8-0.1c-7.4-0.6-13-6.5-13.2-14c-0.2-7.6,5.3-14.1,12.7-15
		c1.3-0.2,2.6-0.1,3.8-0.2c1.8-0.1,2.1-0.4,2.2-2.4c0-1.3,0-2.6,0-3.8c0-68.5,0-136.9,0-205.4c0-1.6,0-3.2-0.1-4.8
		c-0.1-1.8-0.5-2.2-2.4-2.2c-3.5-0.1-7,0-10.6,0c-4.2,0-8.3-0.2-12.4-1.1c-2.5-0.6-4.9-1.4-7.2-2.5c-5.6-2.8-9.1-7.4-10.9-13.3
		c-0.3-1.1-0.7-2.2-0.7-3.3c-0.3-3.4-0.8-3.5-4.3-3.5c-6.9,0-13.8,0-20.6,0c-1.3,0-2.6,0-3.8,0c-7-0.5-12-4.9-13.3-11.7
		c-0.1-0.8-0.3-1.6-0.3-2.4c0.2-12.5-0.4-24.9,0.5-37.4c1.6-21.7,7.9-42.1,18.5-61c14.1-25,33.6-44.6,59.1-58
		c2.4-1.3,4.8-2.6,7.4-3.5c2.5-0.9,3.3-2.5,3.6-5c0.7-6.8,2.1-13.6,3.5-20.3c2.4-11.3,5.7-22.3,9.7-33.1c0.3-0.7,0.6-1.5,0.8-2.3
		c0.4-1.3,0.1-1.8-1.2-1.8c-4.5,0-8.9-0.3-13.3-1.6c-10.2-2.9-18.4-8.8-25.3-16.7c-9.4-10.8-14.9-23.4-16.4-37.7
		c-1.7-16-4.8-31.6-10-46.8c-0.4-1-0.6-2.2-0.7-3.3c-0.1-1.3,1.3-2.5,2.5-2.4c1.4,0.2,2.8,0.6,4.2,1c6.6,1.8,13.3,3.3,20.1,4.6
		c8.2,1.6,16.5,2.1,24.8,2.6c16.4,0.9,30.8,6.6,43.1,17.6c0.5,0.4,0.9,0.9,1.5,1.2c0.4,0.2,1,0.1,1-0.5c0-2.6-0.1-5.1-0.3-7.7
		c-0.5-6.5-1.2-13.1-1.5-19.6c-0.1-2.3-1-3.8-2.8-5.2c-4.8-3.7-9.3-7.8-13.5-12.2c-3.5-3.6-6.7-7.3-9.4-11.5c-1.6-2.4-2.9-5-3.7-7.8
		c-0.8-2.8-1-5.7,0-8.5c2.1-6.2,9.4-9.3,15.3-6.3c2.6,1.4,4.2,1.4,6.6-0.5c3.4-2.7,7.5-3,11.3-0.9c2.4,1.3,3.9,1.7,6.1-0.4
		c2.4-2.3,5.7-2.7,9-2c5,1.1,8.4,4.9,8.8,10c0.2,2.6,0,5.1-0.8,7.6c-1.3,4.5-3.4,8.6-5.8,12.6c-4.2,6.8-9,13.2-14.4,19.1
		c-1.7,1.8-2.2,3.7-2,6.1c1,11,1.8,22,2.6,33c0.1,1.6,0.4,3.1,1.3,4.5c2.6,4.1,2.2,4.7,5.7,0.7c18.2-21.6,39.5-39.6,63.7-54.1
		c27.1-16.1,56.2-26.8,87.3-31.9c7.4-1.2,14.9-2.1,22.4-2.7c0.6,0,1.3-0.1,1.9-0.3c0.5-0.2,0.7-0.7,0.3-1.1
		c-0.7-0.9-1.5-1.6-2.3-2.5c-12-13.9-6.4-34.7,11-40.6c4.3-1.4,4.3-1.4,4.3-6.3c0-48.2,0-96.3,0-144.5c0-80.6,0-161.3,0-241.9
		c0-2.5-0.5-5.1,1.2-7.4C1336.6-0.5,1337.5-0.5,1338.5-0.5z"/>
	<path fill="#FFFFFF" d="M1338.2,448.4c-1.4,0-2.9,0-4.3,0c-21.2,0.3-42.1,3.2-62.5,9c-49.8,14.2-91.1,41.4-124.2,81.1
		c-1.9,2.2-2.2,4.3-1.4,6.9c1.9,6.8,1.9,13.6,0,20.4c-4.7,17.1-15.5,28.7-31.9,35.1c-0.9,0.3-1.8,0.6-2.7,0.9
		c-1.1,0.4-2,0.9-2.4,2.2c-0.3,0.9-0.7,1.8-1,2.7c-6.2,16.3-10.6,33.1-13.4,50.4c-1,6.4,0,5,4.6,3.6c11.1-3.4,22.3-5.6,33.9-5.6
		c44.3-0.1,88.6,0,132.9,0c1.4,0,2.9-0.3,4.2,0.5c0.8,0.5,1.5,0.3,2.2-0.2c0.8-0.6,1.5-1.2,2.3-1.8c29.4-22.6,62.5-32.1,99.4-28.4
		c15.9,1.6,31.1,6,45.4,13.1c30.5,15.3,52.6,38.6,66.3,69.9c1.9,4.3,1.4,4.4,6.2,2.6c18.8-7.2,37.6-14.5,56.4-21.7
		c10.9-4.2,21.8-8.4,32.7-12.6c2.3-0.9,2.5-1.2,2.2-3.5c-0.9-7.3-1.6-14.6-2.9-21.9c-6.6-36.4-20.6-69.8-42.2-99.9
		c-6.5-9.1-13.7-17.7-21.3-25.9c-1.7-1.8-3.5-3.1-6.1-3.2c-1.9-0.1-3.8-0.4-5.7-0.9c-17.4-4.7-29.6-15.3-35.9-32.3
		c-0.9-2.5-2.2-4.3-4.6-5.7C1425.4,460.2,1383.4,448.5,1338.2,448.4z"/>
	<path fill="#D8A852" d="M1116.5,834.8c33.4,0,66.8,0,100.3,0c5.9,0,5.5,0.4,5.5-5.4c0-21.6,0-43.2,0-64.8c0-9.3,0.6-18.5,2.3-27.7
		c5.3-28.7,18.3-53.3,39.1-73.8c0.6-0.6,1.2-1.1,1.7-1.7c0.2-0.2,0.2-0.6,0-0.9c-0.1-0.2-0.5-0.4-0.7-0.4c-1.3-0.1-2.6-0.1-3.8-0.1
		c-41.9,0-83.8,0-125.7,0c-2.1,0-4.2,0-6.2,0.1c-19.3,1.4-37.3,6.9-54,16.7c-25.7,15.2-44.5,36.7-57,63.7
		c-7.8,16.9-12.3,34.6-12.7,53.3c-0.3,10.2-0.2,20.5-0.2,30.7c0,1,0.1,1.9,0.3,2.9c0.8,4.2,3.9,7.1,8.2,7.4c1.4,0.1,2.9,0.1,4.3,0.1
		C1050.6,834.8,1083.6,834.8,1116.5,834.8z"/>
	<path fill="#D7EEFF" d="M1207.7,1082.3c12.6,0,25.3,0,37.9,0c23.8,0,47.7,0,71.5,0c1.3,0,2.6,0,3.8,0c0.4,0,1.2-0.1,1.3-0.3
		c0.2-0.6-0.5-0.7-0.9-0.9c-1.5-0.5-3-1-4.5-1.5c-25.9-8.6-47.4-23.6-64.4-45c-20-25.2-30-54-30.1-86.2c-0.1-26.2,0-52.5,0-78.7
		c0-6.5,0.7-6-5.8-6c-39.7,0-79.4,0-119,0c-1.3,0-2.6,0-3.8,0c-1.1,0-1.8,0.6-1.9,1.7c-0.1,1.6-0.1,3.2-0.1,4.8
		c0,68.5,0,136.9,0,205.4c0,1,0,1.9,0,2.9c0.1,3.7,0.1,3.7,3.7,3.8c1.3,0,2.6,0,3.8,0C1135.3,1082.3,1171.5,1082.3,1207.7,1082.3z"
		/>
	<path fill="#4A4F4E" d="M1807.3,949.5c0.1-4.2-1.6-9.1-4.4-13.8c-7.6-12.8-15.1-25.6-22.6-38.5c-4.8-8.1-9.4-16.3-14.4-24.4
		c-10.2-16.7-32.5-16.8-42.3-6.2c-29.8,26.1-59.7,52.3-89.5,78.4c-49.1,43-98.2,86-147.3,129c-0.5,0.4-1,0.8-1.4,1.3
		c-0.4,0.4-1.1,0.8-0.7,1.5c0.3,0.5,0.9,0.1,1.3,0c0.8-0.2,1.5-0.5,2.3-0.7c37.5-12.4,75-24.7,112.5-37.1
		c50.4-16.6,100.8-33.3,151.2-49.8c11.7-3.8,23.3-7.9,35.1-11.3C1799.2,974.5,1807.3,963.4,1807.3,949.5z"/>
	<path fill="#2D3130" d="M1647.8,1081.3c0,0.1,0,0.2,0,0.4c19.8,0,39.7,0,59.5,0c16.3,0,32.6,0.1,48.9,0.2c1,0,1.9,0.1,2.9,0.1
		c13.8,0.1,27.5,0.5,41.3,0.2c19.5-0.4,31.3-19.2,26.8-35.2c-0.4-1.4-0.7-2.8-1.2-4.2c-6.4-21.6-12.7-43.2-19.1-64.8
		c-0.5-1.5-1-3-1.6-4.5c-0.2-0.5-0.8-0.6-1.2-0.3c-0.4,0.3-0.7,0.6-1.1,1c-5,5-10.9,8.2-17.9,9.6c-1.6,0.3-3.1,0.9-4.6,1.4
		c-39.8,13.1-79.5,26.2-119.3,39.3c-43.3,14.2-86.5,28.5-129.8,42.7c-11.7,3.8-23.4,7.7-35.1,11.6c-0.9,0.3-1.8,0.6-2.7,1
		c-0.2,0.1-0.4,0.5-0.5,0.7c-0.1,0.4,0.2,0.6,0.6,0.6c1.3,0,2.6,0.1,3.8,0.1c21.4,0.1,42.9,0.2,64.3,0.2
		C1590.6,1081.3,1619.2,1081.3,1647.8,1081.3z"/>
	<path fill="#202121" d="M1497.2,776.4L1497.2,776.4c0,4.8,0,9.6,0,14.4c0,1.9,0.5,2.2,2.4,1.9c1.4-0.2,2.8-0.5,4.2-0.8
		c7.5-1.5,15.1-2.9,22.6-4.4c22.1-4.3,44.2-8.5,66.3-12.8c5.1-1,5.1-1,7.2-5.6c14.5-31.1,29.1-62.2,43.6-93.4
		c0.3-0.6,0.6-1.1,0.8-1.7c1.1-3.4,0.7-6.7-1.7-9.4c-2.4-2.7-5.5-3.7-9.1-2.8c-1.4,0.3-2.7,0.9-4.1,1.4
		c-45.2,17.4-90.3,34.8-135.5,52.2c-1.2,0.5-2.4,0.9-3.6,1.4c-0.9,0.4-1.1,1.1-0.8,2c0.3,1.1,0.7,2.1,1,3.2c2,6.6,3.6,13.3,4.5,20.1
		c1.3,10.1,2.3,20.3,2.1,30.6C1497.2,773.8,1497.2,775.1,1497.2,776.4z"/>
	<path fill="#524E43" d="M1338.2,1106.4c84.2,0,168.3,0,252.5,0c1.8,0,3.5,0.1,5.3-0.1c5.7-0.7,9.4-6.6,7.7-12.1
		c-1.3-4.1-4.2-6.3-8.4-6.9c-1.9-0.2-3.8-0.1-5.8-0.1c-167.4,0-334.7,0-502.1,0c-1.4,0-2.9-0.1-4.3,0c-1.1,0.1-2.2,0.2-3.3,0.5
		c-4.6,1.3-7.6,5.8-7,10.2c0.6,4.7,4.3,8.1,9,8.4c1.6,0.1,3.2,0,4.8,0C1170.5,1106.4,1254.4,1106.4,1338.2,1106.4z"/>
	<path fill="#A3CEB5" d="M1513.8,517.2c11.3,0,20.4-4.1,27.9-11.3c9.2-8.9,15.1-19.7,17.7-32.3c1.3-6.5,1.4-13,1.5-19.6
		c0.1-10.6,1-21.1,3-31.4c0.4-1.9,0.7-3.8,1-5.7c0.2-1.3-0.3-1.9-1.5-1.5c-1.1,0.3-2.1,0.7-3.2,1.1c-8.9,3.2-17.9,6-27.2,7.7
		c-6,1.1-12,2.1-17.9,3.5c-14.5,3.3-26,11.2-35,22.8c-2.5,3.2-4.5,6.6-5.9,10.4c-5.7,15.5-2.5,29.2,8.2,41.4
		c0.1,0.1,0.2,0.2,0.3,0.3c0.7,0.6,1.3,0.8,2,0c0.7-0.9,1.3-1.8,1.9-2.8c7.6-11.1,15.9-21.7,25.1-31.4c4.6-4.9,9.4-9.5,14.6-13.9
		c0.8-0.7,1.7-1.4,2.7-1.9s2.4-0.1,3,0.8c0.5,0.9,0.5,1.9-0.1,2.7c-0.7,0.9-1.5,1.6-2.4,2.3c-4.3,3.6-8.3,7.5-12.2,11.5
		c-10.5,10.8-19.8,22.6-28.1,35.2c-1.4,2.1-1.3,2.5,0.6,3.9C1497.3,514.2,1505.4,517.3,1513.8,517.2z"/>
	<path fill="#A9CB60" d="M1142,555c0.1-9.2-3.6-17.9-10-25.4c-7.7-8.9-17.3-15-28.6-18.5c-5.5-1.7-11.2-2.3-17-2.8
		c-5.7-0.5-11.5-0.9-17.2-1.5c-8.1-0.9-16.1-2.7-24-4.7c-2.2-0.5-2.7-0.1-2.2,2c0.3,1.1,0.6,2.1,1,3.2c2.6,8.6,4.8,17.2,5.9,26.1
		c0.8,5.7,1.6,11.4,2.4,17.1c1.6,11.4,6.4,21.4,13.6,30.2c5,6.1,10.9,11.2,18.3,14.3c14.9,6.3,28.4,3.6,40.9-6.1
		c1.6-1.2,1.5-1.8,0.1-3c-4.7-3.8-9.6-7.5-14.2-11.4c-11.3-9.5-21.6-20-30.6-31.6c-0.8-1-1.5-2-2.1-3.2c-0.6-1-0.2-2.3,0.7-3
		c0.8-0.7,2.2-0.7,3.1,0.2c1.1,1.2,2.1,2.4,3.1,3.7c12.6,15.9,27.4,29.5,43.7,41.5c1.8,1.4,2.2,1.3,3.5-0.3
		C1138.4,574.2,1142,565.7,1142,555z"/>
	<path fill="#C99643" d="M1134.3,839.9c-27.4,0-54.7,0-82.1,0c-6,0-5.8,0-4.2,6c1.1,4,3.7,7,7.4,9.1c2.4,1.4,5,2.2,7.7,2.7
		c3.9,0.8,7.9,0.9,11.9,0.9c47.2,0,94.4,0,141.6,0c1.1,0,2.2,0,3.4,0c1.9-0.1,2.4-0.5,2.3-2.3c-0.1-3.5-0.4-7-0.6-10.5
		c-0.4-6.3,0.5-5.9-6.2-5.9C1188.4,839.9,1161.3,839.9,1134.3,839.9z"/>
	<path fill="#FFFFFF" d="M1497.2,1040.9L1497.2,1040.9c0,4.2-0.1,8.3,0,12.5c0,1.2-0.6,2.9,0.7,3.5c1.1,0.5,1.8-1,2.7-1.6
		c0.5-0.4,1-0.8,1.4-1.3c13.9-12.2,27.9-24.4,41.8-36.6c12.4-10.8,24.7-21.7,37.2-32.5c2-1.7,3-3.4,2.9-6.1
		c-0.2-5.4-0.1-10.9-0.1-16.3c0-0.8,0-1.6-0.1-2.4c0-0.2-0.4-0.4-0.7-0.5c-0.1-0.1-0.4,0-0.4,0.1c-0.5,0.6-1,1.2-1.5,1.9
		c-3.1,4.3-6,8.7-9.1,12.9c-15.1,20.7-34.6,35.7-58.4,45c-4.5,1.8-9,3.2-13.6,4.5c-2.7,0.7-2.8,0.9-2.8,3.6
		C1497.2,1032,1497.2,1036.5,1497.2,1040.9z"/>
	<path fill="#D7EEFF" d="M1337.6,443.2c9.8,0.8,20.3-8.1,20.2-19.9c-0.1-10.9-8.9-19.7-19.8-19.9c-9.8-0.1-20,7.5-20.2,20.1
		C1317.6,434.3,1326.6,443.1,1337.6,443.2z"/>
	<path fill="#F6BDBE" d="M1154.3,451.8c0-1.2,0-1.5,0-1.8c-0.2-3.6-2.6-6.1-6-6.3c-3.5-0.2-6,1.8-6.7,5.4c-0.2,0.8-0.1,1.6-0.4,2.3
		c-0.4,0.9-1.1,1.5-2.2,1.5c-0.8,0-1.6-0.3-1.9-1.1c-0.4-0.9-0.6-1.8-1-2.7c-1.1-2.6-3.2-4-6-4.1c-2.7-0.1-5.1,1.8-6,4.6
		c-0.3,1.1-0.4,2.2-0.7,3.3c-0.2,0.8-0.8,1.3-1.7,1.5c-1.1,0.1-1.9-0.3-2.4-1.2c-0.4-0.8-0.5-1.8-0.9-2.7c-1.4-3-4.3-4.5-7.5-3.7
		c-3,0.7-4.9,3.5-4.8,6.8c0.1,1.8,0.7,3.4,1.4,5c1.2,2.8,2.9,5.3,4.8,7.7c5.6,7.1,12.1,13.1,19.1,18.8c1.5,1.2,1.9,1.1,3.2-0.3
		c5.7-6.5,11-13.3,15.2-20.9c1.5-2.8,3-5.7,3.8-8.8C1153.9,453.8,1154.2,452.3,1154.3,451.8z"/>
	<path fill="#F6BDBE" d="M1607.5,485c-1.8,0-3.5,0.4-5.1,1c-3.5,1.3-6.6,3.1-9.7,5.2c-5,3.5-9.6,7.4-14,11.7
		c-1.7,1.7-3.4,3.4-5.1,5.1c-0.7,0.7-0.5,1.4,0,2.1c0.3,0.4,0.6,0.7,1,1.1c5.7,5.9,11.7,11.4,18.4,16c2.8,1.9,5.6,3.6,8.8,4.8
		c1.8,0.7,3.6,1.3,5.6,1.2c3.3-0.1,6-2.2,6.6-5.2c0.6-3.4-1.1-6.2-4.6-7.4c-0.8-0.2-1.6-0.3-2.3-0.6c-1-0.4-1.6-1.1-1.6-2.2
		c0-1.1,0.6-1.8,1.6-2.1c0.8-0.3,1.6-0.4,2.3-0.6c3.1-1,4.7-3,4.7-5.9c0.1-3-1.6-5.3-4.7-6.4c-0.9-0.3-1.9-0.4-2.7-0.8
		c-0.8-0.3-1.1-1.1-1.1-2c0-0.8,0.4-1.6,1.2-1.9c0.9-0.4,1.9-0.4,2.8-0.7c3.5-1.2,5.2-4,4.6-7.4C1613.6,487,1611,485,1607.5,485z"/>
	<path fill="#2D3130" d="M596.4,1432.7c-0.9-0.3-1.7-0.8-2.7-1c-17.6-5.2-27.7-25.3-19.3-43.2c8.1-17.1,16.1-34.1,24.2-51.2
		c29-61.4,58.1-122.9,87.1-184.3c2.5-5.3,2.7-3.9-1.3-8.1c-9.5-10-19.1-19.8-28.6-29.7c-0.8-0.8-1.6-1.6-2.3-2.4
		c-0.9-1-2.1-1.4-3.4-1.4c-1.4,0-2.9,0-4.3,0c-91.2,0-182.4,0-273.6,0c-1.8,0-3.5,0.1-5.3-0.1c-7.4-0.6-13-6.6-13.3-14
		c-0.2-7.5,5.3-14.1,12.7-15c1.9-0.2,3.8-0.1,5.8-0.2c0.9,0,1.5-0.6,1.5-1.5c0.1-1.6,0.1-3.2,0.1-4.8c0-34.9,0-69.8,0-104.6
		c0-92.2-0.2-184.3,0.1-276.5c0.2-67.2,23.6-125.5,69.9-174.1c35.6-37.4,79.1-61.3,129.7-72.1c11-2.3,22-3.9,33.2-4.7
		c0.5,0,1-0.1,1.4-0.1c0.7-0.1,1-0.9,0.5-1.4c-0.8-0.8-1.6-1.6-2.3-2.4c-12.5-14.2-5.4-36.8,13.1-41c4.5-1,4.1-1.1,4.1-5.3
		c0-15.5,0-31,0-46.6c0-0.8,0-1.6,0-2.4c0-1.1-0.5-1.8-1.4-2.4c-1.1-0.7-2.2-1.4-3.2-2.1c-9.5-6.9-16.4-15.7-19.6-27.1
		c-2.9-10.4-1.9-20.6,2.7-30.4c4.1-8.6,10.2-15.5,17.8-21c2.8-2,3.7-4.1,3.7-7.5c-0.1-82.2-0.1-164.5-0.1-246.7c0-1.3,0.1-2.6,0-3.8
		c-0.1-1.7,0.5-3.1,1.8-4.3c0.6,0,1.3,0,1.9,0c1,1.5,1.5,3.1,1.4,5c-0.1,1.6,0,3.2,0,4.8c0,79.7,0,159.3,0,239
		c0,2.2-0.4,4.5,0.4,6.6c2.4,0.6,4-1.5,6.1-1.9c3.3-0.7,5.5-2.9,7.4-5.6c5.8-8.1,11.7-16,17.7-23.9c1.4-1.8,1.9-3.6,1.4-5.8
		c-1.2-5.6-1.7-11.4-2.2-17.1c-0.5-5.5-0.3-10.9,0.4-16.3c0.4-3.4,1.4-6.6,3-9.5c2.4-4.2,6-6.6,11-6.2c5,0.4,8.3,3.1,9.9,7.8
		c0.2,0.5,0.3,0.9,0.5,1.4c0.3,0.8,0.8,1.3,1.8,1.3c0.5,0,1,0,1.4,0c5.2,0.2,9,2.6,10.5,7.6c0.8,2.6,2.2,2.9,4.5,3
		c5.7,0.3,9.9,4.3,10.5,9.9c0.3,3-0.5,5.7-2.3,8.1c-1.7,2.4-4,4.1-6.5,5.6c-3.7,2.3-7.7,3.8-11.9,5.1c-7.3,2.3-14.8,3.9-22.5,4.8
		c-2.6,0.3-4.4,1.2-6,3.3c-4.7,6.6-9.7,13.1-14.5,19.7c-0.4,0.5-0.8,1-1.1,1.6c-0.1,0.3-0.2,0.7-0.1,0.9c0.1,0.2,0.5,0.4,0.8,0.3
		c2.5-0.3,5.1-0.7,7.6-1c14.5-1.7,28.6-5.1,42.4-10c0.9-0.3,1.8-0.7,2.7-0.9c1.8-0.4,3.3,0.7,3.2,2.5c-0.1,1.1-0.4,2.2-0.6,3.3
		c-2.5,9.8-4.7,19.6-5.7,29.6c-0.6,6.5-1,13.1-1.4,19.6c-1.1,15.9-7.2,29.7-18,41.4c-7.3,7.9-16.1,13.1-26.7,14.9
		c-6.4,1.1-12.7,0.7-19-1.1c-1.2-0.4-2.5-0.7-3.7-1c-0.6-0.2-0.9,0.3-1,0.7c-0.2,0.6-0.2,1.3-0.2,1.9c0,15.5,0,31,0,46.6
		c0,0.5,0,1,0.1,1.4c0.1,0.9,0.4,1.5,1.3,1.8c0.9,0.3,1.9,0.5,2.8,0.8c17.4,5.8,23.1,26.8,11,40.6c-0.9,1-2.9,1.8-2.2,3.3
		c0.6,1.1,2.6,0.6,4,0.7c30.1,2.6,59,9.9,86.2,23c62.6,30.2,106,78.1,130,143.3c5.3,14.3,8.9,29,11.2,44.1c0,0.2,0,0.3,0.1,0.5
		c1.2,5.5,0,4.5,5.2,6c27.1,8,49.3,23.3,67.2,44.9c17.2,20.6,28,44.2,32.6,70.6c1.4,7.9,2,15.9,2,23.9c0.1,8.2,0,16.3,0,24.5
		c0,1.6-0.1,3.2-0.4,4.8c-1.3,6.8-6.4,11.2-13.4,11.6c-3,0.2-6.1,0-9.1,0.1c-5,0-9.9,0-14.9,0c-2.2,0-2.5,0.3-2.9,2.3
		c-0.4,1.7-0.6,3.5-1.2,5.1c-1.9,6.1-5.9,10.5-11.8,13.1c-3.9,1.7-7.9,2.6-12.1,2.8c-5.4,0.2-10.9,0.2-16.3,0.3
		c-6.4,0-12.8,0-19.2,0c-2.2,0-2.5,0.4-2.6,2.5c-0.1,1.3,0,2.6,0,3.8c0,40.5,0,80.9,0,121.4c0,6.8-0.6,6.5,6.1,5.5
		c8.4-1.2,16.6-3.2,24.9-5.2c0.9-0.2,1.8-0.6,2.8-0.7c2.1-0.3,3.5,1.2,3,3.2c-0.3,1.2-0.8,2.4-1.2,3.6c-3.2,9.6-6,19.2-7.6,29.2
		c-0.9,5.2-1.6,10.4-2.2,15.7c-1.6,13.7-6.5,26-15.4,36.6c-0.3,0.4-0.6,0.7-0.9,1.1c-0.4,0.6-0.4,1.2,0.3,1.6
		c0.8,0.5,1.7,0.9,2.5,1.4c5.3,3.5,7.8,9.9,6.2,15.9c-1.9,7.4-8.4,11-13.6,10.9c-1.4,0-2.9,0-4.3,0c-36.8,0-73.6,0-110.4,0
		c-1.6,0-3.2,0-4.8,0.1c-1.1,0.1-1.7,0.7-1.7,1.9c0,1.6,0,3.2,0,4.8c0,93.7,0,187.5,0,281.2c0,3,0.1,6.1-0.7,9.1
		c-2.7,10.9-9.2,18.4-19.6,22.6c-1.3,0.5-2.9,0.3-3.8,1.7C689.2,1432.7,642.8,1432.7,596.4,1432.7z"/>
	<path fill="#FFFFFF" d="M378.8,876.6c0,66.4,0,132.8,0,199.2c0,7.3-0.6,6.5,6.3,6.5c66.2,0,132.5,0,198.7,0c1.3,0,2.6,0,3.8,0
		c0.3,0,0.6,0,0.9-0.1c0.1,0,0.3-0.2,0.3-0.2c0-0.1-0.1-0.4-0.1-0.4c-1.2-0.4-2.4-0.9-3.6-1.2c-60.1-17.3-100.9-71.3-100.9-133.8
		c-0.1-60.6-0.1-121.3,0-181.9c0-11.2,1.1-22.3,3.5-33.3c14.7-66.2,77.9-115.5,151.3-106.6c25.5,3.1,48.4,12.9,68.5,28.9
		c2.1,1.7,4.2,2.8,6.9,2.5c0.9-0.1,1.9,0,2.9,0c41,0,81.9,0,122.9,0c6.6,0,13.1,0.1,19.6,1.1c2.2,0.3,4.4,0.7,6.6,1
		c1.2,0.1,1.8-0.4,1.7-1.6c-0.1-1-0.1-1.9-0.3-2.9c-1-5-1.8-10.1-3-15c-15.7-64.3-51.3-114.7-106.6-151
		c-34.8-22.8-73.3-35.4-114.7-38.5c-14.2-1.1-28.4-0.9-42.6,0.5c-18.2,1.8-36,5.5-53.4,11.3C450.8,492.9,379,584,378.8,694.7
		C378.7,755.3,378.8,815.9,378.8,876.6z"/>
	<path fill="#D8A852" d="M863.9,835.9c32.8,0,65.6,0,98.3,0c1.4,0,2.9,0.1,4.3-0.1c4.6-0.3,7.7-3.2,8.4-7.8c0.1-0.8,0.2-1.6,0.2-2.4
		c0-9.3,0-18.5-0.1-27.8c0-4-0.2-8-0.6-12c-2.2-20.5-8.5-39.6-19-57.4c-14.2-24-33.5-42.7-58.6-55.1c-17.4-8.6-35.8-12.5-55.1-12.5
		c-36.8,0-73.6,0-110.3,0c-3.5,0-7,0-10.6,0c-0.8,0-1.6,0-2.4,0.1c-0.3,0-0.6,0.2-0.7,0.4c-0.1,0.2-0.1,0.7,0.1,0.9
		c1,1.1,2,2.1,3,3.1c10.5,10.7,18.9,22.9,25.4,36.4c8.4,17.4,12.8,35.7,13.4,55c0.1,3.2-0.2,6.4-0.2,9.6c0,21.3,0,42.5,0,63.8
		c0,6.2-0.6,5.6,5.7,5.6C798,835.9,831,835.9,863.9,835.9z"/>
	<path fill="#2D3130" d="M754.7,1302.8c0-1.6,0-3.2,0-4.8c0-30.9,0-61.8,0-92.6c0-1.4-0.1-2.9-0.1-4.3c0-0.6-0.6-0.7-1-0.6
		c-1.1,0.3-2,0.9-3.1,1.2c-5.3,1.6-10.1,0.9-14.2-3.1c-0.6-0.6-1.1-1.2-1.7-1.7c-12.6-13.1-25.3-26.3-38-39.4
		c-1.4-1.5-2.6-3.3-4.5-4.2c-2.1,1.2-2.4,3.6-3.4,5.5c-30.9,65.3-61.8,130.7-92.7,196c-5.5,11.7-11.1,23.4-16.6,35.1
		c-1.9,4.1-3.1,8.4-2.9,13c0.6,11.8,9,21.5,20.5,24.2c2.8,0.7,5.7,0.7,8.6,0.7c40,0,80,0,120,0c1.6,0,3.2,0,4.8-0.1
		c11.6-0.8,21.1-9.1,23.7-20.4c0.6-2.5,0.7-5.1,0.7-7.6C754.7,1367.5,754.7,1335.1,754.7,1302.8z"/>
	<path fill="#D7EEFF" d="M759.7,970.5c0,36.9,0,71.2,0,105.4c0,1.6,0,3.2,0.1,4.8c0,0.9,0.6,1.4,1.5,1.5c1.1,0.1,2.2,0.1,3.4,0.1
		c14.4,0,28.8,0,43.2,0c1,0,1.9,0,2.9-0.1c0.7,0,1.2-0.7,0.8-1.3c-0.8-1.2-1.6-2.4-2.4-3.6c-11.4-17.2-10.3-38,2.9-53.9
		c1.3-1.6,2.8-3.1,4.2-4.6c0.8-0.9,1.3-1.8,1.3-3c0.1-6.2,0.1-12.5,0.3-18.7c0-1.7-0.6-3.1-1.9-4.2c-0.8-0.7-1.6-1.5-2.4-2.3
		c-5.3-5.3-10.4-10.9-14.7-17.1c-2.3-3.3-4.4-6.7-5.9-10.4c-1.1-2.9-1.9-5.8-1.6-8.9c0.4-5.8,4.9-10.1,10.6-10.4
		c3-0.2,5.7,0.7,8,2.6c1,0.8,1.9,0.9,3,0.1c1.8-1.5,3.7-2.4,6.1-2.6c3.3-0.3,6.4,0.4,8.9,2.7c0.8,0.7,1.6,0.9,2.5,0.1
		c0.7-0.6,1.5-1.2,2.3-1.7c5.7-3,12.8-0.7,15.5,5c1,2.2,1.3,4.5,1,7c-0.6,4.7-2.7,8.9-5.1,12.8c-4,6.4-8.9,12.1-14.1,17.5
		c-2.4,2.5-5.3,4.6-7.2,7.6c-0.1,3.5-0.1,7-0.2,10.5c0,1.9,0,3.8,0,5.8c0,0.6,0.8,1.1,1.4,0.7c1-0.6,1.9-1.2,2.8-1.8
		c5.9-3.7,12-6.6,18.8-8.3c6.4-1.6,12.9-2.2,19.5-2.5c6.7-0.3,5.9,0,5.9-6.2c0-40.9,0-81.9,0-122.8c0-6.5,0.6-5.9-6-5.9
		c-32.9,0-65.9,0-98.8,0c-7.9,0-7-0.9-7,6.8C759.5,905.4,759,939.3,759.7,970.5z"/>
	<path fill="#A3CEB5" d="M602.8,299.7c0,12.7,4.3,21.9,11.6,29.9c0.2,0.2,0.5,0.4,0.7,0.6c0.5,0.5,1.2,0.5,1.7,0.1
		c0.7-0.5,1.3-1,1.9-1.5c15.4-13.2,29.2-27.7,40.7-44.4c0.6-0.9,1.2-1.9,2-2.7c0.9-1.1,2.4-1.3,3.4-0.6c0.8,0.6,1.2,2,0.7,3
		c-0.6,1.3-1.4,2.5-2.2,3.7C652.1,304,638.8,318.2,624,331c-1,0.8-1.9,1.7-2.9,2.5c-0.7,0.7-0.7,1.4,0.1,2
		c8.6,6.3,18.1,9.4,28.8,8.1c9.7-1.2,17.9-5.8,24.6-12.8c8.3-8.6,14-18.6,16.4-30.4c0.8-4.1,1.3-8.2,1.5-12.4
		c0.6-12.8,1.8-25.5,4.8-38c0.4-1.7,0.8-3.4,1.1-5.1c0.2-0.8-0.5-1.2-1.2-1c-1.2,0.3-2.5,0.7-3.7,1.1c-8.7,2.7-17.5,5.1-26.5,6.4
		c-5.4,0.8-10.8,1.5-16.1,2.4c-15.5,2.4-28.3,9.8-38.3,21.7C606.4,283,602.8,291.6,602.8,299.7z"/>
	<path fill="#A3CEB5" d="M806.5,1051.4c0,10.7,3.5,19,9.5,26.5c0.3,0.4,0.6,0.7,1,1c0.5,0.5,1.1,0.5,1.7,0.1
		c0.4-0.3,0.8-0.5,1.2-0.8c16.4-12.1,31.4-25.7,44.2-41.7c0.8-1,1.6-2,2.4-2.9c0.9-0.9,2.1-1,3.1-0.4c1.1,0.7,1.5,2.1,0.7,3.3
		c-0.8,1.2-1.6,2.4-2.5,3.5c-11.9,15-25.9,27.9-41.1,39.4c-1.3,1-2.6,1.9-3.8,2.9s-1.2,1.6,0.1,2.7c11.7,9.4,24.6,12.5,39,7.3
		c7.4-2.6,13.4-7.3,18.7-13c9.4-10.3,14.7-22.3,16.2-36.1c1.6-14.2,4.2-28.1,8.7-41.7c0.2-0.6,0.3-1.2,0.5-1.8
		c0.2-0.7-0.4-0.9-0.8-0.9c-0.8,0-1.6,0.1-2.4,0.3c-12.9,3.3-26,5.1-39.3,5.7c-4.6,0.2-9.2,0.7-13.8,1.7
		c-14.1,3.1-25.8,10.2-34.8,21.5C809.4,1035,806.3,1043.2,806.5,1051.4z"/>
	<path fill="#524E43" d="M506.2,1106.4c44.6,0,89.2,0,133.8,0c1.6,0,3.2,0,4.8-0.1c0.4,0,1.1,0,1.1-0.6c0-0.4-0.2-0.9-0.5-1.2
		c-0.7-0.9-1.5-1.7-2.3-2.5c-3.4-3.6-6.9-7.2-10.3-10.7c-4.9-5-2.9-4.1-9.9-4.1c-83.3,0-166.6,0-249.9,0c-1.4,0-2.9-0.1-4.3,0
		c-1.3,0.1-2.6,0.3-3.7,0.7c-4.1,1.5-6.7,5.7-6.2,9.8c0.5,4.7,4.1,8.2,8.9,8.6c1.6,0.1,3.2,0.1,4.8,0.1
		C417,1106.4,461.6,1106.4,506.2,1106.4z"/>
	<path fill="#C99643" d="M846.9,841.1c-26.4,0-52.7,0-79.1,0c-1,0-1.9,0-2.9,0c-6,0-5.5-0.5-5.6,5.3c0,2.6,0,5.1,0,7.7
		c0,6.3-0.5,5.6,5.7,5.6c47.1,0,94.3,0,141.4,0c2.2,0,4.5,0,6.7-0.2c3.5-0.2,7-0.8,10.3-2.1c4.8-1.9,8.4-5.1,10-10.3
		c2-6.8,1-6-4.1-6c-1.1,0-2.2,0-3.4,0C899.6,841.1,873.2,841.1,846.9,841.1z"/>
	<path fill="#524E43" d="M821.6,1106.4c18.4,0,36.7,0,55.1,0c1.3,0,2.6,0,3.8,0c5-0.3,8.9-3.7,9.4-8.5c0.5-4.6-2.7-9.1-7.5-10.3
		c-1.3-0.3-2.5-0.3-3.6,0.7c-1.2,1-2.5,2-3.8,2.9c-7.3,5.2-15.4,8.3-24.5,8.7c-11.2,0.5-21.1-3-29.8-10c-2.4-2-4.8-2.7-7.8-2.7
		c-16,0.1-32,0-47.9,0c-1.1,0-2.2,0-3.4,0c-1.5,0.1-2,0.5-2,2.1c-0.1,4-0.1,8,0,12c0,5.4-0.4,5.1,5.3,5.1
		C783.9,1106.4,802.7,1106.4,821.6,1106.4z"/>
	<path fill="#D7EEFF" d="M625.2,443.2c11,0,19.8-8.8,19.9-19.8c0.1-11-9.1-20.1-20.2-20c-11,0.1-19.8,9-19.8,19.9
		C605,435,615.3,443.9,625.2,443.2z"/>
	<path fill="#F6BDBE" d="M844.4,956.9c0.2-4.5-1.7-7.3-4.8-8c-3.4-0.8-6.5,1.1-7.7,4.8c-0.3,0.7-0.3,1.6-0.6,2.3
		c-0.4,1-1.2,1.5-2.3,1.3c-0.9-0.1-1.5-0.5-1.8-1.3c-0.4-1-0.5-2.2-0.9-3.2c-1.1-2.8-3.5-4.3-6.4-4c-2.9,0.2-4.7,1.8-5.6,4.5
		c-0.3,0.9-0.4,1.9-0.7,2.8c-0.3,0.8-1,1.2-1.9,1.3c-1.1,0.1-1.9-0.4-2.3-1.4c-0.4-1-0.5-2.2-0.9-3.2c-1-2.4-2.8-3.8-5.5-4
		c-2.6-0.2-4.6,1-6,3.2c-1,1.8-1.1,3.6-0.7,5.6c0.7,3.3,2.1,6.3,3.9,9.2c5,8.2,11.5,15.3,18.4,22c1.3,1.3,1.9,1.3,3.2,0
		c5.9-5.7,11.4-11.6,16.1-18.3c1.8-2.6,3.5-5.3,4.8-8.3C843.7,960.3,844.3,958.3,844.4,956.9z"/>
	<path fill="#F6BDBE" d="M664.1,194.4c0.1,2.6,0.2,4.2,0.3,5.8c0.2,5.4,1,10.8,2,16.2c0.4,1.8,0.8,2.1,2.6,1.9
		c2.1-0.2,4.1-0.6,6.2-0.9c7.1-1.3,14.1-2.8,20.8-5.6c2.4-1,4.7-2.1,6.8-3.5c1.6-1.1,3.1-2.3,4.2-3.9c1.8-2.7,1.6-6.2-0.6-8.3
		c-2.3-2.3-5.5-2.5-8.3-0.5c-0.8,0.5-1.5,1.2-2.2,1.8c-0.7,0.5-1.5,0.4-2.3,0c-1-0.6-1.2-1.5-1-2.5c0.2-1.1,0.8-2.1,1.1-3.1
		c0.7-2.7-0.3-5.3-2.4-6.8c-2.2-1.6-4.8-1.7-7.2-0.1c-0.8,0.5-1.5,1.2-2.2,1.8c-0.8,0.6-1.7,0.8-2.6,0.2c-1-0.6-1.4-1.6-0.9-2.9
		c0.2-0.8,0.7-1.4,0.9-2.2c1-3.3-0.2-6.2-3.1-7.7c-2.8-1.5-5.9-0.8-8.1,2c-1.2,1.5-1.9,3.3-2.4,5.2
		C664.1,185.9,664.2,190.7,664.1,194.4z"/>
	<path fill="#2D3130" d="M255.6,1057.4c1.4-0.4,2.4-1.5,3.6-2.3c3.7-2.6,7.7-4.5,12.2-5.2c8.7-1.3,16,1.9,22.3,7.7
		c1.6,1.5,1.5,3.1-0.3,4.5c-7.6,5.8-17.8,8.9-28.3,3.4c-2.6-1.3-4.9-3-7.1-4.9c-0.7-0.7-1.4-1.3-2.5-1.2
		C255.6,1058.7,255.6,1058,255.6,1057.4z"/>
	<path fill="#A9CB60" d="M276.7,1063.4c3.4,0.1,6.8-1.1,10-2.9c1-0.6,1-1.5,0-2.2c-3.1-2.1-6.4-3.6-10.1-3.8
		c-4.5-0.2-9,0.4-12.3,3.8C263.2,1059.5,271.5,1063.4,276.7,1063.4z"/>
	<path fill="#2D3130" d="M930.8,1240.1c0,4.7-0.7,9.2-1.9,13.7c-1.6,5.9-3.2,11.7-3.8,17.8c-0.6,5.4-0.9,10.8-1.4,16.2
		c-0.1,1.6-0.8,1.9-2.1,0.9c-0.9-0.7-1.8-1.4-2.7-2c-7.6-5.8-15.7-11-24.5-15c-2.8-1.3-5.5-2.7-8.1-4.2c-8.3-4.9-14.1-11.9-18-20.6
		c-2.4-5.5-3.6-11.3-2.7-17.3c1.2-8.5,5.4-15.3,12.2-20.4c0.9-0.7,1.9-1.2,2.8-1.9c1.2-0.9,1.3-1.4,0.4-2.8
		c-0.6-0.9-1.2-1.9-1.9-2.8c-8.9-12.7-19-24.5-30.1-35.4c-4.6-4.5-9.4-8.7-14.1-13c-0.5-0.4-1-1-0.6-1.6c0.6-1.1,1.2-2.3,2.6-2.6
		c0.2-0.1,0.6,0.2,0.8,0.4c1,0.8,2,1.6,3,2.4c16.3,14.3,30.8,30.2,43.2,48c0.6,0.9,1.3,1.8,1.9,2.8c0.7,1.1,1.5,1.4,2.8,1
		c3.1-1,6.2-1.5,9.4-1.5c10-0.1,18,3.8,24.2,11.5c5.8,7.4,8.3,16.1,8.6,25.4C930.9,1239.5,930.8,1239.8,930.8,1240.1z"/>
	<path fill="#A9CB60" d="M926,1241.2c0-7.8-1.6-14.3-4.9-20.3c-2.1-3.9-4.8-7.1-8.5-9.6c-6.5-4.4-13.5-5.4-21.1-3.3
		c-1.3,0.3-1.6,1-1,2.1s1.3,2.2,1.9,3.3c5.4,9.4,10.1,19.2,13.5,29.6c0.5,1.5,1,3,1.4,4.6c0.2,0.9-0.1,1.5-1,1.8
		c-2.5,0.9-3.2,1.1-3.9-1.5c-0.2-0.8-0.5-1.5-0.7-2.3c-3.6-11.2-8.6-21.7-14.6-31.7c-0.4-0.7-0.8-1.4-1.3-2c-0.7-1-1.5-1-2.5-0.4
		c-4.3,2.6-7.9,6-10.2,10.6c-3.7,7.1-3.7,14.5-0.7,21.8c3.4,8.4,8.9,15.1,16.8,19.7c2.6,1.5,5.3,2.9,8.1,4.2
		c6.4,3,12.5,6.5,18.2,10.5c0.8,0.5,1.6,1.1,2.4,1.5c0.4,0.2,1,0.1,1.2-0.4c0.2-0.8,0.5-1.5,0.5-2.3c0.6-8.8,2.7-17.3,5-25.8
		C925.5,1247.6,926.1,1244,926,1241.2z"/>
	<path fill="#2D3130" d="M947.2,1114.8c-7.1-0.3-15-2.6-22.4-6.7c-0.6-0.3-1.1-0.6-1.6-1.1c-0.7-0.7-1-1.6-0.6-2.6
		c0.2-0.6,0.5-1.2,0.9-1.7c6-7.9,13.4-14.1,22.9-17.4c6.5-2.3,13.2-2.3,19.8-0.9c5.2,1.1,10.1,2.8,14.8,5.3c0.8,0.5,1.7,0.9,2.4,1.5
		c0.8,0.7,1,1.7,0.6,2.6c-0.3,0.7-0.7,1.4-1.2,2c-4.9,6.2-10.6,11.4-17.8,15C960,1113.6,954.4,1115,947.2,1114.8z"/>
	<path fill="#A9CB60" d="M949,1110.1c12-0.4,20.8-6.4,28.2-14.8c0.6-0.7,0.4-1.6-0.4-2c-3.6-1.9-7.4-3.1-11.3-3.9
		c-6.7-1.4-13.3-1.2-19.7,1.5c-6.3,2.7-11.4,6.9-16,12c-1,1.1-0.9,2,0.5,2.6C936.4,1108.3,942.7,1109.8,949,1110.1z"/>
	<path fill="#2D3130" d="M918.5,1164.1c-11.7,0-20.6-6.2-24.7-16.9c-1-2.6-0.4-3.8,2.5-4.4c13-2.8,24.5,2.1,30.5,15.5
		c1.5,3.3,0.7,4.6-2.9,5.3c-0.6,0.1-1.3,0.2-1.9,0.2C920.7,1164,919.5,1164,918.5,1164.1z"/>
	<path fill="#A3CEB5" d="M917.3,1159.2c0.6,0,1.3,0,1.9,0c1.7-0.1,2.1-0.9,1.1-2.5c-1.5-2.5-3.4-4.6-5.8-6.3
		c-3.8-2.7-8.1-3.5-12.7-3.4c-1.8,0-2.3,0.9-1.5,2.4C904.3,1155.6,909.8,1159.2,917.3,1159.2z"/>
	<path fill="#2D3130" d="M480.8,307.5c5.9-0.1,11.5,1,16.8,3.6c11.3,5.4,17.2,16.1,15.7,28.6c0,0.3-0.1,0.6-0.2,0.9
		c-0.5,1.7,0.4,2.7,1.9,3.3c0.6,0.3,1.1,0.6,1.7,0.9c17.3,8.9,33.1,20,47.7,32.8c0.6,0.5,1.2,1,1.8,1.6c1.1,1.1,1.1,1.7,0.1,2.8
		c-0.4,0.5-0.9,1-1.4,1.2c-0.3,0.2-1,0.2-1.3,0c-1-0.8-2-1.6-2.9-2.5c-13.8-12-28.7-22.5-44.9-31c-4.5-2.4-3.9-2.6-6.3,1.7
		c-6.5,11.6-18.8,16.7-31.9,13.1c-8.7-2.4-16-7-21.6-14.3c-1.5-2-3-4.1-4.4-6.3c-4.6-7.4-10.1-14-16.2-20.1
		c-0.8-0.8-1.6-1.6-2.3-2.4c-0.8-0.9-0.5-1.7,0.8-2c2-0.4,4.1-0.8,6.1-1.1c7.2-1.4,14.3-3.4,21.1-6.3c2.4-1,4.8-1.8,7.2-2.7
		C472.3,307.9,476.5,307.3,480.8,307.5z"/>
	<path fill="#A9CB60" d="M484.1,360.8c9.2,0,15.4-3.3,19.9-9.8c0.6-0.9,1.2-1.9,1.7-2.9c1.1-2.1,0.9-2.8-1.1-3.8
		c-0.4-0.2-0.9-0.4-1.3-0.5c-7-3.1-14.3-5.6-21.7-7.4c-3.3-0.8-6.6-1.4-9.8-2c-1.4-0.3-1.8-0.9-1.7-2.4c0.2-2,0.8-2.5,2.8-2.3
		c1.3,0.1,2.5,0.4,3.8,0.6c9.8,1.9,19.1,5,28.3,8.9c3.2,1.4,3.7,1,3.8-2.6c0-0.8,0-1.6-0.1-2.4c-0.8-8.9-5.4-15.3-13.5-18.9
		c-8-3.6-16.4-4.1-24.8-1.4c-2.7,0.9-5.4,1.9-8.1,3c-5.4,2.1-10.8,4-16.4,5.2c-0.8,0.2-1.5,0.4-2.3,0.6c-1.3,0.4-1.6,1-0.6,2
		c5.9,6.3,10.7,13.5,15.5,20.7c1.1,1.6,2.3,3.1,3.6,4.5C468.4,356.5,476,360.4,484.1,360.8z"/>
	<path fill="#2D3130" d="M312.7,1028.3c-0.1,1.2-0.1,3.1-0.4,5c-0.2,1.2-1.2,1.9-2.4,1.9c-0.5,0-1,0-1.4-0.1
		c-9.2-1.9-17.7-5.5-24.7-12s-10.3-14.9-11.7-24.1c-0.4-3-0.5-6.1-0.7-9.1c0-1.3,0.2-2.5,0.5-3.8c0.2-1,1-1.6,2.1-1.6
		c0.8,0,1.6,0,2.4,0.2c6.4,1.4,12.5,3.7,18.2,7.3c8.9,5.6,14.1,13.7,16.6,23.7C312.1,1019.6,312.4,1023.6,312.7,1028.3z"/>
	<path fill="#A3CEB5" d="M307.6,1025.7c-0.1-3.7-0.8-7.3-1.8-10.8c-2.5-8.9-7.9-15.6-16.1-20c-2.1-1.1-4.3-2.1-6.5-3
		c-7.1-2.8-7.4-2.6-6.5,4.8c1.9,16.7,10.2,27.4,29,32.8c1.2,0.3,1.9-0.2,2-1.3C307.7,1027.3,307.6,1026.5,307.6,1025.7z"/>
	<path fill="#2D3130" d="M1509.3,343.9c0,5.9-0.9,10.8-3.1,15.3c-4.1,8.3-10.8,13.5-20,14.7c-4.2,0.5-5.7,2.2-6.7,6.3
		c-4.5,18.6-11.6,36.2-20.3,53.2c-0.4,0.7-0.8,1.4-1.2,2.1c-0.8,1.3-1.3,1.5-2.7,0.8c-0.3-0.1-0.5-0.3-0.8-0.5
		c-1-0.5-1.4-1.3-0.8-2.3c0.5-1,1-2,1.5-3c8.1-15.8,14.6-32.3,19.2-49.5c0.1-0.5,0.3-0.9,0.4-1.4c1.4-6.2,1.8-4.7-3.5-6.4
		c-12-3.8-19.3-13.5-19.5-26.1c-0.1-9.8,2.9-18.6,9.1-26.2c1.5-1.9,3.1-3.7,4.8-5.3c6.9-6.6,12.5-14.1,17.6-22.1
		c0.4-0.7,0.9-1.3,1.4-2c0.4-0.5,0.9-0.3,1.2,0.1c0.5,0.8,0.9,1.7,1.2,2.6c3.5,8.6,7.7,16.8,13.2,24.4c1.2,1.7,2.3,3.5,3.4,5.2
		C1507.6,330.2,1509.2,337.3,1509.3,343.9z"/>
	<path fill="#A9CB60" d="M1480,342.2c0-3.2,0-6.4,0-9.6c0-1.5,0.4-1.9,2-2.1c2-0.3,2.7,0.2,2.9,2.1c0.2,1.4,0.2,2.9,0.2,4.3
		c0.2,8.8-0.7,17.6-2,26.3c-0.2,1.3-0.5,2.5-0.7,3.8c-0.3,2.1,0.3,2.6,2.4,2.2c7.7-1.1,13.3-5.2,16.8-12.1c2.5-5,3.2-10.3,2.6-15.9
		c-0.7-6.5-2.9-12.4-6.6-17.8c-4.6-6.6-8.8-13.3-12.2-20.6c-0.7-1.5-1.4-1.6-2.4-0.3c-3.5,4.8-7.1,9.5-11.3,13.7
		c-1.9,1.9-3.8,3.9-5.7,5.9c-5.3,5.5-8.2,12.2-9.4,19.6c-0.7,4.5-0.4,8.9,1.2,13.2c3,7.8,8.9,12.3,16.9,14.1
		c1.4,0.3,2.1-0.2,2.5-1.6c0.1-0.5,0.2-0.9,0.3-1.4C1479.2,358.1,1479.9,350.2,1480,342.2z"/>
	<path fill="#2D3130" d="M1666,475.9c-10.4-0.1-19.2-3.6-27.3-9c-2.3-1.6-2.5-3.1-0.7-5.2c7.9-8.6,17.2-14.8,29.1-16.2
		c5-0.6,9.9,0.2,14.7,1.5c5.3,1.4,10.2,3.8,14.8,6.7c0.8,0.5,1.6,1.1,2.3,1.8c0.7,0.7,0.8,1.8,0.4,2.7c-0.3,0.6-0.7,1.1-1.1,1.6
		c-6.7,7.1-14.4,12.7-24,15.1C1671.3,475.6,1668.5,475.7,1666,475.9z"/>
	<path fill="#A3CEB5" d="M1667.2,471.1c8.8,0,17.3-5,24.8-12.2c0.9-0.9,0.8-1.7-0.3-2.3c-5.3-3.1-10.9-5.3-17-6.1
		c-12.3-1.6-22,3.8-30.6,11.9c-0.9,0.8-0.8,1.6,0.3,2.3C1650.9,468.4,1657.7,470.9,1667.2,471.1z"/>
	<path fill="#2D3130" d="M1622.6,431.7c0.1-12.9,6.2-21.4,17.6-25.5c0.6-0.2,1.2-0.4,1.8-0.6c2.7-0.7,4.1,0.1,4.3,2.9
		c0.6,6.2-0.3,12.2-3.6,17.5c-3.8,6.2-9.6,9.6-16.5,11.5c-1.9,0.5-3.2-0.4-3.5-2.3C1622.6,433.8,1622.6,432.3,1622.6,431.7z"/>
	<path fill="#A9CB60" d="M1627.5,429.5c-0.1,1.9,0.6,2.3,2.3,1.5c7.7-3.6,11.5-9.8,11.8-18.3c0-0.9-0.8-1.4-1.6-1
		C1632.2,415.1,1628.1,420.6,1627.5,429.5z"/>
	<path fill="#4A4F4E" d="M979.7,800.5h-77c-31.5,0-57-25.5-57-57V658l0.7-0.2c73.8,0,133.6,67.5,133.6,141.3L979.7,800.5z"/>
	<path fill="#4A4F4E" d="M1000.7,798.7h77c31.5,0,57-25.5,57-57v-85.5l-0.7-0.2c-73.8,0-133.6,67.5-133.6,141.3L1000.7,798.7z"/>
	<path fill="#FFFFFF" d="M753.7,980.1c-78.1,0-141.1-63.3-141.1-141.4c0-72.4,54.5-132.1,124.6-140.4l1.4,0.5
		c11.2,19.6,16.1,41.4,16.2,65.4l-0.6,0.2v215.5L753.7,980.1z"/>
	<circle fill="#EDC062" cx="621.1" cy="772.5" r="35.5"/>
	<path fill="#FFFFFF" d="M1228.2,960.1V764.3l-0.1-0.2c0.1-24,4.8-45.8,15.9-65.4l0.4-0.5c70.1,8.4,124.7,49.2,124.7,121.6
		c0,78.1-62.7,141.4-140.8,141.4L1228.2,960.1z"/>
	<circle fill="#EDC062" cx="1360.6" cy="772.5" r="35.5"/>
	
		<path fill="#4A4F4E" stroke="#2D3130" stroke-width="5" stroke-linecap="round" stroke-linejoin="round" stroke-miterlimit="10" d="
		M1392,1002.8c1,0.8,2.1,1.5,3.1,2.2c57,39.2,135.3,23.8,175.1-32.8l137-194.8c6.7-9.6-2.4-22.2-13.6-18.9l-262.5,50.8
		c-3.5,0.7-6.9,1.6-10.2,2.8C1339.8,841.2,1321.2,950.9,1392,1002.8z"/>
	
		<path fill="#4A4F4E" stroke="#2D3130" stroke-width="5" stroke-linecap="round" stroke-linejoin="round" stroke-miterlimit="10" d="
		M637.4,850.2c1.2,0,2.4,0,3.6,0c64.1,0.6,115.2,54,115.2,118.2v220.7c0,10.8-13.7,15.6-20.4,7l-171.9-178.5
		c-2.3-2.4-4.4-4.9-6.3-7.5C511.7,944.8,556.1,851.8,637.4,850.2z"/>
	
		<circle fill="#2D3130" stroke="#2D3130" stroke-width="5" stroke-linecap="round" stroke-linejoin="round" stroke-miterlimit="10" cx="1361.3" cy="771.1" r="17.1"/>
	
		<circle fill="#2D3130" stroke="#2D3130" stroke-width="5" stroke-linecap="round" stroke-linejoin="round" stroke-miterlimit="10" cx="622.2" cy="772.2" r="17.1"/>
	<path fill="#D7EEFF" d="M868.2,653.5c-1-5-1.8-10.1-3.1-15c-15.7-64.3-51.3-114.7-106.6-151c-34.8-22.8-73.3-35.4-114.7-38.5
		c-14.2-1.1-28.4-0.9-42.6,0.5c-18.2,1.8-36,5.5-53.4,11.3c-15.3,5.1-30,11.7-43.9,19.6c-33.2,70.4-51.7,149-51.7,232
		c0,65.1,11.4,127.6,32.4,185.5c0-44.4,0-88.8,0.1-133.2c0-11.2,1.1-22.3,3.5-33.3c14.7-66.2,77.9-115.5,151.3-106.6
		c25.5,3.1,48.4,12.9,68.5,28.9c2.1,1.7,4.2,2.8,6.9,2.5c0.9-0.1,1.9,0,2.9,0c41,0,81.9,0,122.9,0c6.6,0,13.1,0.1,19.6,1.1
		c2.2,0.3,4.4,0.7,6.6,1c1.2,0.1,1.8-0.4,1.7-1.6C868.5,655.4,868.4,654.5,868.2,653.5z"/>
	<path fill="#D7EEFF" d="M1506.9,521.6c-0.6-0.1-1.2-0.2-1.8-0.4c-17.4-4.7-29.6-15.3-35.9-32.3c-0.9-2.5-2.2-4.3-4.6-5.7
		c-38.9-23-80.8-34.7-126-34.8c-1.4,0-2.9,0-4.3,0c-21.2,0.3-42.1,3.2-62.5,9c-49.8,14.2-91.1,41.4-124.2,81.1
		c-1.9,2.2-2.2,4.3-1.4,6.9c1.9,6.8,1.9,13.6,0,20.4c-4.7,17.1-15.5,28.7-31.9,35.1c-0.9,0.3-1.8,0.6-2.7,0.9
		c-1.1,0.4-2,0.9-2.4,2.2c-0.3,0.9-0.7,1.8-1,2.7c-6.2,16.3-10.6,33.1-13.4,50.4c-1,6.4,0,5,4.6,3.6c11.1-3.4,22.3-5.6,33.9-5.6
		c44.3-0.1,88.6,0,132.9,0c1.4,0,2.9-0.3,4.2,0.5c0.8,0.5,1.5,0.3,2.2-0.2c0.8-0.6,1.5-1.2,2.3-1.8c29.4-22.6,62.5-32.1,99.4-28.4
		c15.9,1.6,31.1,6,45.4,13.1c30.5,15.3,52.6,38.6,66.3,69.9c1.9,4.3,1.4,4.4,6.2,2.6c16.2-6.3,32.5-12.5,48.7-18.8
		C1538.7,632.2,1526.9,574.9,1506.9,521.6z"/>
</g>
</svg>
