<?xml version="1.0" encoding="UTF-8"?>
<svg xmlns="http://www.w3.org/2000/svg" xmlns:xlink="http://www.w3.org/1999/xlink" width="4460" height="2102" viewBox="0 0 4460 2102">
<path fill-rule="nonzero" fill="rgb(53.318787%, 18.041992%, 18.041992%)" fill-opacity="1" d="M 2093.71875 1094.160156 C 2008.78125 1273.605469 1716.710938 1634.007812 1248.070312 1852.523438 C 779.429688 2071.039062 134.265625 2147.664062 20.257812 2073.363281 C -93.746094 1999.058594 323.421875 1773.839844 540.695312 1609.171875 C 757.96875 1444.5 775.308594 1340.414062 834.90625 1287.398438 C 894.5 1234.386719 996.347656 1232.460938 1186.628906 1179.363281 C 1376.910156 1126.269531 1655.609375 1022.011719 1856.058594 969.121094 C 2056.5 916.230469 2178.660156 914.71875 2093.71875 1094.160156 Z M 2093.71875 1094.160156 "/>
<path fill="none" stroke-width="7.50035" stroke-linecap="butt" stroke-linejoin="miter" stroke="rgb(0%, 0%, 0%)" stroke-opacity="1" stroke-miterlimit="4" d="M 20727.208914 -10181.509915 C 19886.205439 -8368.762723 16994.898294 -4727.838518 12355.496515 -2520.308956 C 7716.094737 -312.779394 1329.178381 461.316063 200.544603 -289.299235 C -928.050505 -1039.953996 3201.752975 -3315.201126 5352.715651 -4978.740788 C 7503.639656 -6642.319912 7675.297484 -7693.836407 8265.291507 -8229.420805 C 8855.246859 -8764.96574 9863.499738 -8784.420729 11747.211401 -9320.833838 C 13630.884395 -9857.207485 16390.016174 -10910.49979 18374.309502 -11444.781927 C 20358.60283 -11979.103527 21568.019037 -11994.414958 20727.208914 -10181.509915 Z M 20727.208914 -10181.509915 " transform="matrix(0.101014, 0, 0, 0.0989865, 0, 2102)"/>
<path fill-rule="nonzero" fill="rgb(56.443787%, 19.993591%, 19.993591%)" fill-opacity="1" d="M 1035.289062 1303.746094 C 1009.570312 1325.585938 946.679688 1337.34375 878.070312 1389.425781 C 809.464844 1441.507812 735.140625 1533.902344 645.574219 1612.023438 C 556.003906 1690.144531 451.191406 1753.984375 357.808594 1819.503906 C 264.429688 1885.023438 182.488281 1952.222656 126.265625 1992.542969 C 70.046875 2032.863281 39.558594 2046.300781 30.261719 2039.46875 C 20.964844 2032.640625 32.863281 2005.535156 54.78125 1977.816406 C 76.695312 1950.097656 108.628906 1921.761719 199.871094 1853.832031 C 291.113281 1785.902344 441.664062 1678.382812 538.855469 1601.945312 C 636.046875 1525.503906 679.875 1480.144531 716.085938 1439.824219 C 752.292969 1399.503906 780.878906 1364.226562 807.558594 1333.984375 C 834.238281 1303.746094 859.011719 1278.546875 897.128906 1260.066406 C 935.242188 1241.585938 986.695312 1229.824219 1018.140625 1239.90625 C 1049.589844 1249.988281 1061.019531 1281.90625 1035.289062 1303.746094 Z M 1035.289062 1303.746094 "/>
<path fill-rule="nonzero" fill="rgb(91.40625%, 68.554688%, 68.554688%)" fill-opacity="1" d="M 1053.96875 1175.113281 C 1032.160156 1146.765625 988.523438 1090.070312 928.296875 999 C 868.074219 907.921875 791.261719 782.46875 777.011719 642.898438 C 762.757812 503.328125 811.066406 349.640625 919.886719 275.410156 C 1028.710938 201.191406 1198.039062 206.421875 1320.039062 252.949219 C 1442.039062 299.480469 1516.71875 387.289062 1567.929688 448.980469 C 1619.140625 510.660156 1646.878906 546.199219 1767.429688 620.429688 C 1887.988281 694.660156 2101.359375 807.558594 2338.679688 906.238281 C 2576 1004.910156 2837.261719 1089.359375 3062.070312 1131.535156 C 3286.878906 1173.714844 3475.199219 1173.632812 3470.980469 1217.726562 C 3466.761719 1261.820312 3270 1350.089844 3040.539062 1499.851562 C 2811.070312 1649.613281 2548.929688 1860.847656 2277.160156 1946.375 C 2005.390625 2031.902344 1724.03125 1991.710938 1518.519531 1917.90625 C 1313 1844.105469 1183.359375 1736.691406 1122.210938 1612.015625 C 1061.070312 1487.339844 1068.429688 1345.402344 1072.109375 1274.429688 C 1075.789062 1203.460938 1075.789062 1203.460938 1053.96875 1175.113281 Z M 1053.96875 1175.113281 "/>
<path fill="none" stroke-width="7.50035" stroke-linecap="butt" stroke-linejoin="miter" stroke="rgb(0%, 0%, 0%)" stroke-opacity="1" stroke-miterlimit="4" d="M 10434.003888 -9363.768986 C 10217.991132 -9650.148 9786.042962 -10222.906028 9189.823007 -11143.012557 C 8593.641723 -12063.0007 7833.227325 -13330.416269 7692.15777 -14740.409677 C 7551.049545 -16150.403085 8029.286163 -17703.013795 9106.565674 -18452.918769 C 10183.883855 -19202.705356 11860.090247 -19149.904596 13067.882298 -18679.788405 C 14275.71302 -18209.790603 15015.09073 -17322.595758 15521.982101 -16699.483642 C 16028.989484 -16076.410988 16303.587869 -15717.302675 17496.994538 -14967.397701 C 18690.517218 -14217.492726 20802.6935 -13076.909478 23152.112578 -12080.009016 C 25501.608997 -11083.18748 28087.884167 -10230.088194 30313.40334 -9804.0121 C 32538.999854 -9377.896544 34403.298986 -9378.725255 34361.496302 -8933.273098 C 34319.80963 -8487.82094 32371.905132 -7596.087914 30100.290863 -6083.136968 C 27828.715265 -4570.186023 25233.584577 -2436.214471 22543.208738 -1572.184086 C 19852.716888 -708.1537 17067.28925 -1114.182868 15032.801765 -1859.786436 C 12998.314281 -2605.35054 11714.805621 -3690.489044 11109.498126 -4950.012123 C 10504.190632 -6209.535202 10577.084303 -7643.442856 10613.511803 -8360.436145 C 10649.900633 -9077.389972 10649.900633 -9077.389972 10434.003888 -9363.768986 Z M 10434.003888 -9363.768986 " transform="matrix(0.101014, 0, 0, 0.0989865, 0, 2102)"/>
<path fill-rule="nonzero" fill="rgb(82.8125%, 37.255859%, 37.255859%)" fill-opacity="1" d="M 625.824219 792.070312 L 792.085938 627.988281 L 920.757812 691.578125 Z M 625.824219 792.070312 "/>
<path fill="none" stroke-width="7.50035" stroke-linecap="butt" stroke-linejoin="miter" stroke="rgb(0%, 0%, 0%)" stroke-opacity="1" stroke-miterlimit="4" d="M 6195.459293 -13233.417562 L 7841.386776 -14890.998394 L 9115.189169 -14248.589138 Z M 6195.459293 -13233.417562 " transform="matrix(0.101014, 0, 0, 0.0989865, 0, 2102)"/>
<path fill-rule="nonzero" fill="rgb(50.193787%, 19.993591%, 0%)" fill-opacity="1" d="M 542.609375 685.441406 L 804.886719 540.171875 C 804.886719 540.171875 861.183594 593.078125 884.726562 623.359375 C 901.195312 644.539062 927.160156 691.578125 927.160156 691.578125 Z M 542.609375 685.441406 "/>
<path fill="none" stroke-width="7.50035" stroke-linecap="butt" stroke-linejoin="miter" stroke="rgb(0%, 0%, 0%)" stroke-opacity="1" stroke-miterlimit="4" d="M 5371.664138 -14310.703038 L 7968.109618 -15778.193238 C 7968.109618 -15778.193238 8525.427169 -15243.713789 8758.493563 -14937.800862 C 8921.527895 -14723.795985 9178.569926 -14248.589138 9178.569926 -14248.589138 Z M 5371.664138 -14310.703038 " transform="matrix(0.101014, 0, 0, 0.0989865, 0, 2102)"/>
<path fill-rule="evenodd" fill="rgb(0%, 0%, 0%)" fill-opacity="1" d="M 1220.140625 531.558594 C 1220.140625 549.859375 1211.710938 567.410156 1196.699219 580.359375 C 1181.691406 593.289062 1161.339844 600.558594 1140.121094 600.558594 C 1095.929688 600.558594 1060.109375 569.671875 1060.109375 531.558594 C 1060.109375 493.460938 1095.929688 462.570312 1140.121094 462.570312 C 1161.339844 462.570312 1181.691406 469.839844 1196.699219 482.769531 C 1211.710938 495.710938 1220.140625 513.269531 1220.140625 531.558594 Z M 1220.140625 531.558594 "/>
<path fill="none" stroke-width="15.0008" stroke-linecap="round" stroke-linejoin="round" stroke="rgb(47.068787%, 12.939453%, 12.939453%)" stroke-opacity="1" stroke-miterlimit="4" d="M 12078.887271 -15865.207945 C 12078.887271 -15680.286895 11995.513926 -15502.982099 11846.903647 -15372.282458 C 11698.409379 -15241.503892 11496.898017 -15168.103731 11286.801829 -15168.103731 C 10849.285124 -15168.103731 10494.716388 -15480.212264 10494.716388 -15865.207945 C 10494.716388 -16250.085239 10849.285124 -16562.193771 11286.801829 -16562.193771 C 11496.898017 -16562.193771 11698.409379 -16488.793611 11846.903647 -16358.09397 C 11995.513926 -16227.315404 12078.887271 -16050.010608 12078.887271 -15865.207945 Z M 12078.887271 -15865.207945 " transform="matrix(0.101014, 0, 0, 0.0989865, 0, 2102)"/>
<path fill-rule="evenodd" fill="rgb(100%, 100%, 100%)" fill-opacity="1" d="M 1140.148438 508.300781 C 1140.148438 514.039062 1136.660156 519.539062 1130.449219 523.601562 C 1124.230469 527.660156 1115.808594 529.941406 1107.019531 529.941406 C 1098.238281 529.941406 1089.808594 527.660156 1083.601562 523.601562 C 1077.390625 519.539062 1073.898438 514.039062 1073.898438 508.300781 C 1073.898438 496.351562 1088.730469 486.660156 1107.019531 486.660156 C 1125.320312 486.660156 1140.148438 496.351562 1140.148438 508.300781 Z M 1140.148438 508.300781 "/>
<path fill-rule="nonzero" fill="rgb(89.451599%, 61.131287%, 61.131287%)" fill-opacity="1" d="M 1740.839844 904.921875 C 1728.449219 952.539062 1722.730469 1029.109375 1739.890625 1100.070312 C 1757.039062 1171.035156 1797.058594 1236.398438 1870.429688 1290.554688 C 1943.800781 1344.710938 2050.519531 1387.660156 2238.230469 1429.679688 C 2425.949219 1471.699219 2694.648438 1512.78125 2848.058594 1518.382812 C 3001.46875 1523.984375 3039.578125 1494.105469 3068.171875 1463.292969 C 3096.75 1432.480469 3115.808594 1400.734375 2972.878906 1354.980469 C 2829.949219 1309.226562 2525.039062 1249.46875 2320.179688 1209.316406 C 2115.308594 1169.167969 2010.5 1148.625 1939.03125 1087 C 1867.570312 1025.371094 1829.449219 922.660156 1800.871094 880.640625 C 1772.28125 838.621094 1753.230469 857.300781 1740.839844 904.921875 Z M 1740.839844 904.921875 "/>
<path fill-rule="nonzero" fill="rgb(50.193787%, 0%, 0%)" fill-opacity="1" d="M 2963.449219 1135.917969 L 3648.21875 1053.609375 L 4378.71875 924.359375 L 4459.609375 883.871094 L 4039.339844 1163.011719 L 4417.960938 1210.921875 C 4417.960938 1210.921875 4139.988281 1295.488281 3997.640625 1320.65625 C 3583.140625 1393.945312 2741.820312 1439.574219 2741.820312 1439.574219 Z M 2963.449219 1135.917969 "/>
<path fill-rule="nonzero" fill="rgb(48.242188%, 1.960754%, 1.960754%)" fill-opacity="1" d="M 2946.179688 1186.582031 L 3577.71875 1118.007812 L 4251.441406 1010.320312 L 4326.039062 976.589844 L 3938.441406 1209.15625 L 4287.628906 1249.074219 C 4287.628906 1249.074219 4031.269531 1319.527344 3899.980469 1340.496094 C 3517.699219 1401.558594 2741.78125 1439.574219 2741.78125 1439.574219 Z M 2946.179688 1186.582031 "/>
<path fill-rule="nonzero" fill="rgb(62.693787%, 17.259216%, 17.259216%)" fill-opacity="1" d="M 1716.191406 863.359375 C 1729.671875 1025.480469 1878.808594 1351.398438 2382.699219 1445.835938 C 2886.609375 1540.273438 3745.199219 1403.230469 3954.5 1322.503906 C 4163.789062 1241.777344 3723.75 1217.375 3451.210938 1194.9375 C 3178.671875 1172.5 3073.671875 1152.03125 2974.058594 1120.183594 C 2874.441406 1088.328125 2780.21875 1045.109375 2609.949219 973.941406 C 2439.671875 902.78125 2193.371094 803.699219 2009.128906 753.308594 C 1824.878906 702.929688 1702.710938 701.25 1716.191406 863.359375 Z M 1716.191406 863.359375 "/>
<path fill="none" stroke-width="37.5019" stroke-linecap="butt" stroke-linejoin="miter" stroke="rgb(47.068787%, 12.939453%, 12.939453%)" stroke-opacity="1" stroke-miterlimit="4" d="M 16989.716463 -12513.188351 C 17123.206622 -10875.417671 18599.487138 -7582.867992 23588.005128 -6628.823754 C 28576.407107 -5674.779515 37076.195812 -7059.240717 39148.193567 -7874.771749 C 41220.113982 -8690.302781 36863.895413 -8936.824719 34165.785498 -9163.497043 C 31467.791593 -9390.169367 30428.293046 -9596.952615 29442.198297 -9918.689986 C 28455.987536 -10240.506281 27523.219244 -10677.197774 25837.615949 -11396.006337 C 24151.896643 -12114.893824 21713.613026 -13115.89838 19889.685774 -13625.003473 C 18065.68118 -14133.990178 16856.303644 -14150.998495 16989.716463 -12513.188351 Z M 16989.716463 -12513.188351 " transform="matrix(0.101014, 0, 0, 0.0989865, 0, 2102)"/>
<path fill-rule="nonzero" fill="rgb(95.701599%, 84.375%, 84.375%)" fill-opacity="1" d="M 1260.601562 1680.851562 C 1252.019531 1605.332031 1272.980469 1498.363281 1355.890625 1429.382812 C 1438.789062 1360.398438 1583.621094 1329.40625 1708.441406 1333.539062 C 1833.269531 1337.671875 1938.078125 1376.929688 2072.429688 1419.289062 C 2206.789062 1461.648438 2370.679688 1507.105469 2532.660156 1523.632812 C 2694.648438 1540.164062 2854.730469 1527.765625 2859.488281 1574.953125 C 2864.25 1622.140625 2713.710938 1728.90625 2564.109375 1814.519531 C 2414.5 1900.132812 2265.871094 1964.582031 2101.019531 1985.78125 C 1936.171875 2006.980469 1755.140625 1984.925781 1626.5 1954.171875 C 1497.859375 1923.414062 1421.628906 1883.960938 1364.460938 1842.195312 C 1307.289062 1800.433594 1269.179688 1756.371094 1260.601562 1680.851562 Z M 1260.601562 1680.851562 "/>
<path fill-rule="nonzero" fill="rgb(90.625%, 65.039062%, 65.039062%)" fill-opacity="1" d="M 858.492188 405.371094 C 878.503906 394.160156 903.277344 382.960938 934.722656 362.421875 C 966.164062 341.871094 1004.28125 312 1055.730469 296.121094 C 1107.191406 280.25 1171.980469 278.378906 1229.160156 292.390625 C 1286.328125 306.390625 1335.878906 336.269531 1381.609375 370.820312 C 1427.351562 405.371094 1469.269531 444.589844 1514.058594 482.871094 C 1558.839844 521.160156 1606.480469 558.5 1652.21875 588.378906 C 1697.960938 618.261719 1741.789062 640.671875 1776.089844 659.351562 C 1810.398438 678.019531 1835.171875 692.960938 1858.988281 704.171875 C 1882.820312 715.371094 1905.679688 722.839844 1875.191406 698.558594 C 1844.699219 674.28125 1760.851562 618.261719 1698.910156 572.511719 C 1636.980469 526.761719 1596.960938 491.269531 1551.21875 448.320312 C 1505.480469 405.371094 1454.03125 354.949219 1407.339844 318.53125 C 1360.648438 282.121094 1318.71875 259.710938 1253.929688 249.441406 C 1189.128906 239.160156 1101.46875 241.03125 1033.820312 253.171875 C 966.164062 265.308594 918.523438 287.71875 884.21875 320.398438 C 849.914062 353.078125 828.953125 396.03125 826.09375 411.910156 C 823.238281 427.78125 838.480469 416.570312 858.492188 405.371094 Z M 858.492188 405.371094 "/>
<path fill-rule="nonzero" fill="rgb(82.8125%, 37.255859%, 37.255859%)" fill-opacity="1" d="M 959.445312 224.71875 C 996.910156 174.480469 1071.851562 74.011719 1171.101562 30.101562 C 1270.351562 -13.820312 1393.910156 -1.160156 1415.871094 26.5 C 1437.828125 54.171875 1358.179688 96.851562 1350.230469 123.898438 C 1342.28125 150.949219 1406.011719 162.371094 1399.941406 179.320312 C 1393.871094 196.269531 1318 218.738281 1242.210938 235.53125 C 1166.429688 252.328125 1090.738281 263.441406 1037.378906 269.070312 C 984.023438 274.691406 953 274.828125 937.488281 274.890625 C 921.976562 274.960938 921.976562 274.960938 959.445312 224.71875 Z M 959.445312 224.71875 "/>
<path fill="none" stroke-width="7.50035" stroke-linecap="butt" stroke-linejoin="miter" stroke="rgb(0%, 0%, 0%)" stroke-opacity="1" stroke-miterlimit="4" d="M 9498.180636 -18964.983546 C 9869.068273 -19472.51014 10610.882217 -20487.602792 11593.496632 -20931.200214 C 12576.111046 -21374.797637 13799.29391 -21246.89983 14016.582788 -20967.50567 C 14233.987677 -20687.993123 13445.614593 -20256.78691 13366.804354 -19983.509431 C 13288.110126 -19710.192488 13919.017413 -19594.804279 13858.884969 -19423.616162 C 13798.907206 -19252.388583 13047.696359 -19025.40056 12297.490942 -18855.790941 C 11547.285525 -18686.102398 10797.892186 -18573.79226 10269.693434 -18517.005791 C 9741.494681 -18460.219323 9434.374505 -18458.798675 9280.814417 -18458.08835 C 9127.254329 -18457.417489 9127.254329 -18457.496414 9498.180636 -18964.983546 Z M 9498.180636 -18964.983546 " transform="matrix(0.101014, 0, 0, 0.0989865, 0, 2102)"/>
<path fill-rule="nonzero" fill="rgb(60.351562%, 16.479492%, 16.479492%)" fill-opacity="1" d="M 1726.550781 768.589844 C 1709.390625 801.269531 1690.339844 861.03125 1702.71875 933.871094 C 1715.109375 1006.699219 1758.941406 1092.601562 1870.429688 1180.371094 C 1981.910156 1268.144531 2161.050781 1357.78125 2387.828125 1404.46875 C 2614.609375 1451.15625 2889.03125 1454.890625 3142.5 1439.015625 C 3395.960938 1423.140625 3628.449219 1387.660156 3743.75 1360.582031 C 3859.039062 1333.503906 3857.128906 1314.832031 3769.46875 1312.027344 C 3681.808594 1309.226562 3508.390625 1322.300781 3307.339844 1330.703125 C 3106.28125 1339.105469 2877.601562 1342.839844 2683.21875 1327.902344 C 2488.828125 1312.960938 2328.75 1279.347656 2200.121094 1223.324219 C 2071.480469 1167.296875 1974.289062 1088.871094 1911.398438 1021.640625 C 1848.511719 954.410156 1819.929688 898.378906 1802.769531 850.761719 C 1785.621094 803.140625 1779.910156 763.929688 1769.429688 747.121094 C 1758.941406 730.308594 1743.691406 735.910156 1726.550781 768.589844 Z M 1726.550781 768.589844 "/>
<path fill-rule="nonzero" fill="rgb(54.101562%, 14.892578%, 14.892578%)" fill-opacity="1" d="M 1924.910156 746.738281 C 2068.5 771.371094 2315.390625 856.320312 2478.320312 917.558594 C 2641.25 978.808594 2720.230469 1016.328125 2711.851562 1047.988281 C 2703.46875 1079.648438 2607.738281 1105.445312 2581.421875 1139.453125 C 2555.089844 1173.460938 2598.171875 1215.671875 2585.011719 1243.816406 C 2571.839844 1271.957031 2502.441406 1286.03125 2490.46875 1318.863281 C 2478.511719 1351.699219 2523.980469 1403.292969 2473.71875 1416.191406 C 2423.460938 1429.089844 2277.46875 1403.292969 2153.019531 1355.214844 C 2028.570312 1307.136719 1925.660156 1236.78125 1852.671875 1166.421875 C 1779.671875 1096.070312 1736.589844 1025.710938 1716.25 963.558594 C 1695.910156 901.410156 1698.300781 847.46875 1719.648438 802.640625 C 1741 757.820312 1781.308594 722.121094 1924.910156 746.738281 Z M 1924.910156 746.738281 "/>
<path fill="none" stroke-width="37.5019" stroke-linecap="butt" stroke-linejoin="miter" stroke="rgb(47.068787%, 12.939453%, 12.939453%)" stroke-opacity="1" stroke-miterlimit="4" d="M 19055.91366 -13691.300392 C 20477.514255 -13442.60802 22921.598429 -12584.29969 24534.501406 -11965.607368 C 26147.481723 -11346.993971 26929.280842 -10967.917658 26846.410213 -10647.99556 C 26763.500913 -10328.191849 25815.805854 -10067.581817 25555.206147 -9724.02171 C 25294.606441 -9380.461603 25720.986076 -8954.030348 25590.705558 -8669.703381 C 25460.38637 -8385.415877 24773.291017 -8243.232663 24654.804965 -7911.550754 C 24536.396254 -7579.829383 24986.596845 -7058.609318 24488.986366 -6928.304302 C 23991.491897 -6797.999285 22546.186358 -7058.609318 21314.186647 -7544.313177 C 20082.186937 -8030.017035 19063.415715 -8740.775257 18340.78228 -9451.572942 C 17618.187516 -10162.291701 17191.691869 -10873.089386 16990.296518 -11501.015921 C 16788.901167 -12128.784607 16812.606112 -12673.800531 17024.017092 -13126.592705 C 17235.389401 -13579.384878 17634.390406 -13940.111152 19055.91366 -13691.300392 Z M 19055.91366 -13691.300392 " transform="matrix(0.101014, 0, 0, 0.0989865, 0, 2102)"/>
</svg>
