<?xml version="1.0"?>
<svg xmlns="http://www.w3.org/2000/svg" viewBox="0 0 700 525">
  <title>vector_flying_birds</title>
  <g id="background"/>
  <g id="birds">
    <path d="M21.82,31.86c1.55-.69,3.47,3.71,5.24,4.82-.15-1.84-5.19-6.38-3.72-9.34.49,2.16,1.48,3.29,2.19,5,.24-1.86-1.39-4.61-1.42-6.6,1.56,1.53,2,5.35,3.16,7.76,1.15-.32-1.38-2.42.49-2.39,2.14,8.31,6,13,11.35,14.64,7.35,5.51,14.72,11.12,22.36,17,4.29,3.3,7.3,7.3,12.7,8.41,1.8-1,2.8-.38,4.22-.6.58.38.9,1.32,1.48,1.7,8.48,1.75,20.61-4.35,32.18-6.86,10.5-2.27,25.73-3,29.17-12.89.85,1.19-1.63,3.59-2.7,4.94,3.76-1.37,6-6.31,8.72-9.27a25.86,25.86,0,0,1-6.61,9c3-1,6.28-4.63,8.62-7-1.23,3.24-6.64,7.3-12.15,9.58,2.56.35,5.41-2,7.89-2.77-1.88,1.83-5,3-8.27,4.23,2.46.35,6.48-2.55,9-2.26-2.82,2.22-5.9,2.42-9.73,3.86,2,.92,5.11-.62,7.41-.38-.85,1.28-3.6.68-5.53,1.94,2.95,1-7.81,3-8.13,4.62a5.66,5.66,0,0,1-3.44.32c-.47,2.12-3.58,1.26-5.13,1.8-1.39.49-2.75,2.57-4.18,3.24-10.36,4.84-22.48,7.11-33.55,11.77,3.37,4.36,8.34,5.4,12.3,8.54-2,.9-5,2.48-6.75-.29-1.16.65.2,2.5-.08,3.58-1.32.72-2.37.87-4.2,1.91-.79-.62-2.17,0-2.41-1.81-.71.43.22,1.64-1.16,1.74-5.2.34-9.9-.35-12.78-4.83-.67-.89-2-.44-2.92-.75-.93-1.61-1-3.57-3.36-3.26,1-2.09-.92-2.66-2.18-3.66,1.79-1.44,6.84-1.55,8.94-3.58-7.38-11-17.6-16.18-25.28-26.6-5.22-2.8-9.27-8-13.69-12.49.34,0,.53.26.92.12-.21-.95-3-2.4-4.28-3.37.85-.83,3,1.49,4.52,1.52-1.78-1.54-3.32-3.58-5.24-4.82.85-.81,2.75,2,4,2.59C28.45,37.35,26.24,37.16,21.82,31.86Z" fill-rule="evenodd"/>
    <path d="M263.3,154.31c-1.7-4.76-5.67-9.48-5.21-14.95-1.55-.19-.75,2-1.73,2.38-1.58-5.65-5.26-11.53-3.69-17.78-.74-.22-1.78.36-1.3.66-.06-.44.63,0,.65.21-.55,0-.75.4-1.08.65,1-.06.33.73,0,1.52.75.34.38,1.61.22,2.38-.51-.06-.41-.75-1.09-.65-.59-4.28,0-8.44-.43-12.57a1.7,1.7,0,0,0-.22-2.6c-.77,3-.39,6-2.16,7.37.38,0,1.08-.22.86.43-1,.72.17,1-.86,1.52-.06-.34-.48-.15-.65,0-.4-1.43.57-2.62.43-4.12-.06-.6-.68-1.2-.65-2,0-.34.57-.91.65-1.3.44-2,.43-5,.87-6.72.13-.53.86-1.89,0-2.17-1.06,1-.84,3.21-2.39,3.69-1.3-1.78.88-4.65.65-6.5-.92.22-2.15.24-3,1.08-.65-.61,1.2-3.12.21-3.9-.81.84-2.33,1.93-3.46.65.44-.08,1.51-.64,1.08-.87a13.71,13.71,0,0,0-2.17.43c.68-1-1-.47-.86-1.51.45-.25.46-.25.86-.87-.79-.26-1.71.43-2,0-.29-1.6.76-1.1,1.3-2.17-1-.16-1.49.25-2.38.22a6,6,0,0,0-1.52-1.3c.49-.16,1.69.39,1.52-.43-1.91.25-3.06-.06-3.47-1.74,0,.49-.55-.28-1.08,0-.11-.57-1.2-.73-.66-1.3-4.15-1.84-5.6-6.39-9.53-8.45a19.88,19.88,0,0,0-3.9-4.77,1.38,1.38,0,0,0-1.09.22c-1.28-2.24-4.48,0-6.72.86-1.87.72-3.68,1.11-5.2,1.74-2.33,1-4.8,3.43-7.37,5-4.24,2.57-7.46,3.63-10.62,5.42a30.56,30.56,0,0,0,4.34-5.63,31.06,31.06,0,0,0-6.94,2.38c7-7,18.93-12.58,22.76-21.46-1.51-3.55-4.2-5.92-5.64-9.54-.54,0-.67.41-1.08,0-.87-3.75-3.55-5.7-4.12-9.75-.68-.36-.89.81-1.08.22s.43-.44.43-.87c-1.06.39-1.39-1.05-.87-1.52-.08-1.25-.88,1.13-1.3.22.13-.81,1-.88,1.09-1.74-1.3.25-.45-.82-.87-1.08-.15.43-.58.58-1.09.65-3.5-1.71-9.63.14-13.44-1.52a7.76,7.76,0,0,0,2-.86c-4.26-1-6.9-3.66-11.49-4.34.45-.42,1.48-.25,2-.65-3.22-.26-6.49-2.12-9.32-3.47.21-.94,2.12-.19,3-.43v.22c9,.61,19.13,1.62,28.62,2,3.37.11,6.68-.24,9.75,0,3.9.3,10.65,1.67,11.92,4.33.76,1.6.46,3.86.87,5.42a19,19,0,0,0,2.6,5.85c1.46,2.06,4.85,5.3,7.15,5.64,4.78.7,8.74-3.44,13.44-3.25,2.08.08,4,2.12,6.29,2.6,4.15.87,8.87-.54,13,1.73-11.17.39-20.44,2.69-25.14,9.54,3.13,6.2,7.08,9.84,12.57,13.87,2.5,1.84,6,3.59,7.81,5.86,2.48,3.07,3.52,7.84,5,12.35a72.5,72.5,0,0,1,2.6,14.52c1.07,10.15,2.63,19.65,3.47,29.7v11.27Z" fill-rule="evenodd"/>
    <path d="M345.82,28.25h1.55a6,6,0,0,0,1.77.88c.47,6.19,7.31,5.9,13.74,7.32,2.06.45,4.09,1,6,1.55,2.05.57,4.11.75,6,1.33,3.88,1.2,8.25,4.38,12,6.86s7.6,5,11.3,7.32c8.91,5.67,18.25,10.75,30.79,12v.22c-7.34,0-12.85-1.91-18.17-4-4.59,0-8.87-2.58-12.4-4.65-5-2.95-10.84-4.56-16.18-7.53-3.14,0-4.76-1.59-7.31-2.22-3.84-3.2-10.29-2.43-17.28-3.76-2.29-.44-4.46-1.63-5.76-1.33-4,.9-2.45,9.17-4.43,12.63-1.36-.35-1.19-2.21-2.44-2.66-2.13.16-2.16,2.42-3.76,3.1.07-4.36,1.09-8.53-.67-12.41-5.67,1.19-9.13,4.6-15.51,5.1,1.28.17.87.7,1.11,1.77-5.2-.35-8.61,2.87-11.74,5.32-.48.18-.76.57-1.56.44-2.59,2.67-6,3.81-9.08,5.76-2.51,1.61-4.49,4-6.87,6a91.76,91.76,0,0,1-7.75,5.1c-5.18,3.42-10.55,6.48-17.51,8.2-.39-.13-1.3.26-1.32-.23,15.47-4.23,27.31-16,37.66-26.36,3.62-3.62,7.45-7.73,11.52-10,4.79-2.64,11.59-5.07,16.84-7.53,1.85-.87,4.35-1.83,5.32-2.89C343.1,31.93,342.76,27.58,345.82,28.25Z" fill-rule="evenodd"/>
    <path d="M145.16,244.36h-.54c-.88-1.16-.82-3.25-1.26-4.85-.48,1.26-.47,3-1.43,3.77-1.52-.81-1-3.71-1.44-5.56-.39.44-.15,1.52-.9,1.61-1.46-1-.77-4-.9-5.92-1.78-1.54-1.74-4.57-2.87-7-.37-.81-1.26-1.73-1.79-2.69a31.92,31.92,0,0,0-2.88-4.67,14.82,14.82,0,0,1-5.74-1.61c-4.32,0-7.47-.14-11.31.72-.8.19-.9-.31-1.44-.36a2,2,0,0,1-1.79.54,73.74,73.74,0,0,1-17.78,10c-1.43,1.86-3.13,4-5.92,4.31-1.17.13-2.49-.64-3.24.54-.15-1.31-1.63-.36-2.69-.54-.48-1.43-3.27-3.32-2.51-5.39-.82.06-1,.19-1.62-.18,1.71-2.35,4.85-2.73,7-4.48.45-.37.59-1.09,1.08-1.62a27.12,27.12,0,0,0,4.31-5.57c-.83-.84-1.45-1.9-3.23-1.79.21-.93-.33-1,0-2.16-1-.62-2.78-.78-2.52-2.15-.5-.33-1.5-.17-1.79-.72-.25-1.09.8-1.62.36-2.33-1.75-.73-3.74-1.6-4.67-3.59-.62.14-.69-.27-1.26-.18-.61-1.6-2.58-1.85-2.87-3.77a3.92,3.92,0,0,1-2.33-3.59c-1.9-.62-2.32-2.72-2.7-4.85-1.34-.51-1.75-1.95-1.79-3.77-1.85-.91-2.07-3.44-3.59-4.67-.16-.69.29-1.15,0-1.44-.58,0-.76.32-1.44.18-.39-1.88-2.63-3.11-2.33-5.2.16-1.12,1.31-1.07,1.25-2.52-1,.1-1.32,1.22-2.51,1.44-.94.18-2.26-.66-3.77-.72-.59,0-1.12.25-1.62.18-1.15-.17-2.08-1-3.23-1.08-.42,0-1,.35-1.43.36-.79,0-1.64-.54-2.34-.54-1.24,0-3,.86-4.67,0-1.57.8-3.59,2-5.74,1.62-.16-1.1,2-1.65,1.26-2.16-1.79.92-3.84,2.5-6.11,2.34.74-2,2.71-2.68,4-4.13-2,.68-3.28,2-5.92,2v-.71h.18c1.93-2.38,5-3.66,7.54-5.39-2.44.56-4.77,2.16-7.72,1.62v-.36c2-1.55,4.55-2.51,6.64-4-1-.17-2.43,0-3.05-.54,3.88-3.32,10.57-3.5,16.69-4.49,2.23-.36,4.47-.93,6.47-1.44h6.28c4.62,1.32,14-1,17.24,2,1,1,1.91,4.22,2.51,5.74,3.83,9.64,8.89,18.14,16.16,24.42,3.95,3.42,8.12,6.81,14.72,7.9,2.89-4.06,5-8.82,11.31-10.05,1.13-.22,2.4-.32,3.59-.54,6.27-1.15,12-2.29,17.78-4.67a22.51,22.51,0,0,1,3.23-1.26c.63-.14,2.69-.72,2.51,1.08-.06.71-1.77,1-2.69,1.62a63.32,63.32,0,0,1-7.54,4.84c-4.7,2.37-8.92,3.71-11.49,7.9-.92,3.39-3.35,5.28-4.67,8.26,5.95-.3,11.24-1.12,17.24-2,1.59-.23,4.17-.93,5.38-.54,2.9.92,2.33,5.16,2.88,8.44.3,1.84,1.49,3.82,1.79,5.56.37,2.14.48,4.47.9,6.47v.72h-.18c.12.48-.37.34-.54.53a86.92,86.92,0,0,1-1.79,14.37c-.22.44-.75-.44-.72.36-.48,1.49-.05,3.89-1.08,4.84-1.57-1.48-.76-5.34-1.26-7.9C146.25,238.15,145.86,241.42,145.16,244.36Z" fill-rule="evenodd"/>
    <path d="M295.51,130.54c1.95-6.84,3.72-13.87,7.16-19.21,4.48-1.06,9.56-1.52,12.06-4.56-.52-1.83-2.73-4.1-2-5.21,1.34-2.57,6.71-1.11,8.8-2.93,2.19-3.17,2.28-7.56,1.95-11.08,2.82-3.72,7.13-5.72,12.37-8.14,3.86-1.77,9.33-4.37,11.4-2.93,2.69-.57,4.67-1.84,7.82-2,0,1.19-1.14,1.24-1.63,2,2.42,0,3.74-1,6.19-1-.37,1.91-2.44,2.12-3.91,2.94,1.14.61,4.09-1.23,5.54-.33v.33c-1.25,1-2.43,2.13-4.56,2.28.35,1,2.9-.31,3.26.65-6.32,4.21-12.93,8.13-18.57,13a8.94,8.94,0,0,0-.65,4.56c-2.56,3.41-3.92,8-4.89,13,5.49,4.07,12.27,6.84,19.22,9.45-1.32,2.65-5.61,1.92-7.82,2.93-.18,3.18,1,6.41-.65,8.46a89.52,89.52,0,0,0-16.28-15.3c-2.68,1.28-6.47,3.25-9.77,4.88-.64,1.42-2.36,2.78-4.24,2-3.91,5-8,9.77-9.44,17.26-.58.28-1,1-1.63.32,0,2.84.26,5.91-1.95,6.52a26.77,26.77,0,0,1-.66-3.91c-.65,1.63-.77,3.78-1.95,4.88h-.65c-.15-.82-.21-1.7-.33-3.25-.71.36-.5,1.66-1.3,1.95-1.38-1.71-.21-5.6-2.28-5.86-.24-2.58.59-6.24-.65-7.82Z" fill-rule="evenodd"/>
    <path d="M310.1,234.12c-1.31-.29-3-1-2.23-2.51-1.87.42-2.35-1.24-5-1.68-1.16-6.18-11.53-1.83-16.2-3.35v.13c-5.37-1.34-10.77-2.11-15.95-3.42l0-.06c1.43-.62,4.13.54,5.86-.28.46-1.62-1.19-2.17-.28-3.35-6-1.69-13.65-3-16.2-7.26.59.16.8.69,1.68.56-1.65-3.72,2.54-5.8.28-10.05.44,0,1,0,.84-.56-.79-3-.66-6.37-3.07-8.66.11-.53.79-.5.55-1.39-2.17-.16-1.61-3-3.35-3.63.87-.07.47-1.39.56-2.24-.3-.54-1.29-.39-1.68-.84.61.05.13-1,.28-1.39a4.32,4.32,0,0,0-2.23-.56v-1.4a4.39,4.39,0,0,0-2.79-.56c0-1.94-1.66-2.25-3.35-2.51.06-2.58-2.16-2.87-3.91-3.63.62-3.89-3.76-3.58-4.75-2.23.63-1.3.27-3.73-.56-4.47-2.53.64-2.89,3.43-5,4.47.36-1.66.29-4.83-1.4-5.31-2,1.2-2.37,4-3.91,5.59.13-2.55-.28-4.57-1.4-5.87h-.28c-1.89,1.64-2,5-3.35,7.26-.35-2.53-.59-5.17-2.23-6.42-1.71,4.52-.92,11.56-2.79,15.92-.31-.81-.35-1.89-1.4-2a104.55,104.55,0,0,0-3.07,21.78c2,1,5.45,2,4.75,4.75-.21-.53-.84-.19-.28-.84a54.72,54.72,0,0,1-12.57,3.35c-5.11.84-9.61,4.78-15.64,4.19l0,.26c-3.8.3-7.65.54-11.49,1.13a1,1,0,0,0-.84,1.14,1,1,0,0,0,1,.85l.15,0h0c3.74-.56,7.55-.81,11.38-1.1h0l0,.26c4.48.83,9.61,1,13.41,2.52-5,3.64,1.18,9.24,5.3,9.77,7.89,1,16.78-1.63,25.14-2.51,1.74-.19,3.35.28,5,.28,8.31,0,15.53-2,21.22-2.24.59-.34.81-1.05,1.68-1.11,3.44-.11,4.76,1.47,8.1.83v0c5.26,1.32,10.56,2.09,15.68,3.35l0,0c1.89,1.14,4,.74,6.43,1.67.91.36,1.75,1.58,2.79,2,2.82,1,6.32.71,8.93,1.39,1.88.49,4.44,3.59,5.59.84-.42-.05-1,.1-1.12-.28C309.23,234.74,309.84,234.61,310.1,234.12Z"/>
    <path d="M554.41,85.08c-3.08.21-6.23.66-9.3.66h-.37l0-.15c-.43-.17-1.46.27-1.62-.16,3.45-.69,7.09-1,10.51-2.3a.53.53,0,0,0,.3-.69.53.53,0,0,0-.69-.3c-3.26,1.29-6.88,1.55-10.47,2.28A8.75,8.75,0,0,1,545.47,83a23.55,23.55,0,0,0,4.62-1.84.43.43,0,0,0,.13-.61.43.43,0,0,0-.6-.13,22.68,22.68,0,0,1-4.45,1.76,8,8,0,0,0-3.69,2.28v-.88c-11.91,3.62-26.25-.61-39.06,1.31-3.56.53-7.74,2.68-11.81,3.94-7.75,2.39-15,4.8-24.95,4.92-.77-1.85-3.2-1.67-4.92-3s-2-3.25-3.94-3.61c-2.81-.51-5.59,1.37-8.54-.66,2.82,3.86,9.37,5.73,11.49,9.19-11.23,1.29-21.64-.27-29.87.66-5.62.63-10.9,3.91-16.08,5.91a103.59,103.59,0,0,1-16.74,5.25l0,.14c-2.31-.35-4.62.13-6.66-.62a.34.34,0,0,0-.23.63c2.18.77,4.44.35,6.51.6,0,.16-.09.28-.32.23l0,.13h0c-2.57.68-5.18.75-7.86,1.31a.54.54,0,0,0-.42.64.55.55,0,0,0,.53.44h.12c2.45-.52,5-.6,7.62-1.25l0,.07c-1.94,1.67-5.31,1.91-7.22,3.61,2.92.29,7-1.13,9.85-2-1.56,1.72-4.21,2.36-5.26,4.59,1.79.47,4-1.44,6.24-1.64.13.79-.6.71-.33,1.64a40.7,40.7,0,0,0,5.58-1.64c1.26-.06.12.27.33,1a8.38,8.38,0,0,0,4.6-1.64c.48.06.3.79.32,1.31a5.43,5.43,0,0,0,3.94-1.31c.93-.06.77,1,1.64,1,1.32-.44,2.66-.85,3.29-2,.65.22.75,1,1.31,1.31,1.47-.61,3.19-1,3.61-2.62.67.42.6,1.59,2,1.31a3.88,3.88,0,0,0,3-2.63c2,2.23,6-.36,7.88,1a1.22,1.22,0,0,0,1.31-1.31c.58.77,3.35,1.82,3.62,0,2.06,2,3.06-.68,5.25,1,.71.06,1-.27,1-1,1,0,.94,1,2.3.65.59,0,.77-.32.66-1,.44.37,3.23,1.61,2.95-.33a3.68,3.68,0,0,0,2.63.66c.56-.56-.19-1.48-.66-2,2.11,1.53,6,1,7.55,3.61.38-.49.95-.81,1-1.64,1.09.77,1.28,2.44,2.63,3,.66-.33.52-1.45,1.64-1.31,3.09,1.61,5.74,3.67,9.85,4.26,3.38,4.94,5.69,11,11.16,13.79h2c1.29-.14,1.11-1.95.66-2.95,1.66,1.36,4.2,2.11,5.9,1-.12-8-8.3-10.4-12.8-15.1.59-1.53,1.44-4.85-.33-7.22,1.4.26,3.19,2.94,5.91,3,.91-1.14-.12-3.15-1-3.62.88-.32,2.38,1.55,4.27,1.32.92-.63-.46-1.71-.33-2.63.53,1,1.69-.52,2,.33.84-2,3.27-.6,3.93-3,.67.09.65.88,1.32,1a1.77,1.77,0,0,0,1.64-2c.47.51.83,1.14,1.64,1.31,1.85-2,5.44.27,6.89-2.62,2.1,1.73,2.23-.81,4.27-.33.48-.29,1-.49,1-1.31.81,0,1,.51,1.64.65,1.59-1.8,4.19-.6,4.92-3,1.2.54,5,1.88,4.93.66.13-.54,4.67,1.38,3.93-.33.41-.28,2.31.73,3.94.33.78-.1-.36-.89-.65-1,.66-.42,2.53.73,4.26.33.77-.37-.84-1.1-1.31-1.31,1.11-.42,4.28.43,5.58,0,0-1-.84-1.13-1.64-1.32,2.09-.65,3.78-.08,6.56-.33-.39-1.13-1.65-1.41-2.95-1.64,2.08-.76,5.58-.11,8.21-.32-2-2-6.56-1.32-9.52-2.3l0-.16h.37c3.2,0,6.38-.46,9.38-.66a.67.67,0,0,0-.08-1.34Z"/>
    <path d="M627.31,40.25h.55c7.6,5.56,15.06,19.67,18.59,31.06,1.35,4.35,2.84,9,3.88,13,.43,1.68,1.17,4.36,1.39,5.82,1.62,11.16-5,19.36-2.5,30.79,4.81,2.5,13.65,1,15.81,6.1v.56c-.59.71-1.55-.23-1.94.28-3.52,6.65-12.72,7.62-21.08,9.43H638.4c-4.12-.76-7.74-1.31-11.92-2-3.35-.51-7-1.82-10-1.66-2.7.14-5.63,1.26-8.6,1.66-5.08.69-10.24,1.59-14.7.84.54-1.87,2.7-2.11,4.16-3.06-.23-1.06-2.21-.37-1.94-1.94,1.74-1.39,4.81-.65,7.49-.83A60.87,60.87,0,0,0,621.21,126c.38-3.49-.51-5.76-.56-8.87h-2.77c-.94-1.84-2-3.52-4.16-4.16.71-1.54-2.31-1.11-1.39-2.78-1-.09-2.19,0-2.22-1.11.49-.06,1.39.28,1.11-.55a4.52,4.52,0,0,1-3.05-1.11c0-.44.71-.22.55-.83-1.27-.12-2.46-.32-3.05-1.11.36-.38,1.21-.28,1.94-.28-.28-1.38-2.48-.84-2.77-2.22h3.33c.87-.53-2-1.13-1.11-1.66,7.32.63,12.69,3.21,19.14,4.71.11-3,1.82-5.32.83-8,2.4-1.76.63-4.54,2.22-6.66-1.3-1.21-2.79-2.75-2.77-5,0-.8.67-1.45.55-2.22-.22-1.38-1.37-2.18-1.39-3.61,0-.94.83-1.7.84-2.49,0-1.56-1.73-2.32-1.39-3.88,2.72-1.84-1.46-5.57,1.39-8-1-2-2.05-4.91,0-6.38-.7-1.7-2.5-5-.28-6.38-1.28-1.5-1.59-4-1.39-6.93.05-.33.44-.3.83-.28-.16-1.32-.83-2.13-.83-3.61,1.72.23,2.17,1.72,3.61,2.22C628.54,42.84,626.69,41.69,627.31,40.25Z" fill-rule="evenodd"/>
    <path d="M441.72,149.82h.3v.29h.9c4.26,7.71,6.9,17,6.88,29v6c-.4,3.35-3.1,5.8-3,8.68-.88,0-.29,1.2-1.2,1.79-.58,7.45-7.47,9.33-12,13.46-3.59,3.3-5.1,6.81-7.77,10.76-.37,3-2.17,5.51-1.8,8.37,3.89,1.73,6.84,3,9.27,5.39-1.1,3.56,6.88,3,6.28,8.07-8.87-4.14-14,1.91-22.73,2.39h-.29a54.33,54.33,0,0,1-29-7.47c-.8-1.57-3.67-2.72-5.68-2.69a67.84,67.84,0,0,1-7.18,0c-2.34-.25-4.95-.62-6-1.8,1.62.2,4.27-1.62,6.28-3-2.46-1.84-8.36-1.78-9.57-3.89-1.81.94-4.11-1.62-5.68-.89-.29-.52-1.11-.49-.9-1.5-3.23-.35-5.18-2-7.48-3.29,0-.42-.05-.84.3-.89-.44-.09-.53-.4-1.19-.9v-.3c2.54-.34,3.27,1.26,5.38,2.69,3.54,2.4,10,4,12.86,5.08,9.32-1,18.67,0,28.71,0,1.79-1.6,2.71-4,4.48-5.08-.83-.72-1.4,1.41-2.09-.6,1.11.4,1.86-1.84,3-2.39-.5-1.64,1.42-1.54,1.79-3.29-.44-.83-1.33.63-1.19-.6.62-1,.26-.26.6,0,.3-.93,1.15-2.44,2.09-1.79-1.05-1.41,2.17-2.2.9-3.29-.09,1-1.33.59-1.5,0,2.92-.9,4.95-4.25,7.18-7.18,0,.34-.44.47,0,.6.37-2.15,3.65-3,3.59-4.79-.07.34-.33.47-.6.6,3.9-3.89,4.52-6.45,7.77-8.07.4-.91,2.1-3.63,1.8-5.38,3.88-2.49,3.05-6.58,6.58-8.68.44-3,.89-3.92,3-5.38.06-2.51,1.53-3.16,3-4.78-2.35-2.76-.64-7.46-.6-10.47.62-.17.85-.74,1.79-.6-.23-1.12.37-1.43.3-2.39C439.89,150.78,441.82,151.3,441.72,149.82Z" fill-rule="evenodd"/>
    <path d="M37,208.6h.52c2.46,4.7,5,9.31,7.77,13.73-.13-2.05-1.49-5.25-.78-8.29,1.77,5,3.45,9.92,6.22,14.76,2.51,4.4,5.18,8.84,7.51,13.47,4.32,8.6,7.16,22.17,14,28.23,2.4,2.12,5.76,3.12,6.74,6.21,0,.69.14,1.53-.52,1.56,5,5.61,11.74,8.39,17.87,12.43,8.44,5.56,13.86,15.7,24.6,18.64h1c-3.14.89-6-.7-7.77-2.07,2.1,2.91,6.34,5.91,9.84,8.29v.26c-5-.49-7.23-3.65-10.36-6,2.38,3.84,6.11,6.33,7.77,10.88-4.29-1.76-6.48-5.61-9.58-8.55,1.62,3.9,4.53,6.52,4.92,11.66-3.2-2.59-5.48-6.09-7.51-9.84,0,2.83,2.58,6.47,1.81,10.1h-.52a52.8,52.8,0,0,1-5.18-9.33c-.72,2.37.37,5.15,0,8-2.47-.89-3-3.77-4.14-6-.53.17-.17,1.22-.78,1.3a3.84,3.84,0,0,1-3.11-2.85c-.6.08-1.07.51-1.55,0-1-.25-1.46-1.13-2.07-1.81-2.09.19-3.17-.63-3.63-2.08-4.55-1.92-7.71-5.24-12.95-6.47-1.21-1.81-3.36-2.68-4.14-4.92-2.22-.06-4.32-1.51-4.15-3.11a6.6,6.6,0,0,1-3.36-2.59c-1.16.38-.09-.71,0-.51-.51-1.19-3.22-1.21-2.07-3.11a4.38,4.38,0,0,1-1.82-.52c-1.88,3-3.28,6.56-5.95,8.8-4.23-.4-7.75-2-11.92-3.1a3.16,3.16,0,0,0-2.59-2.33,4.78,4.78,0,0,1,0-4.15c-1.64-1.26-1-3.28-1.81-5.18,3.91-2.22,9.52-2.74,12.95-5.44-.28-2.48-3.44-2.08-3.11-5.18-1.92-1.7-3.88-3.36-4.14-6.73-2.54-.66-2.79-3.6-4.4-5.18.24-.53.53-1,.77-1.55-3.63-3.83-4.59-8.57-4.66-14.51-1.18-.67-2.49-2.16-2.07-3.62a14.08,14.08,0,0,1-2.59-8c-.8-1.27-2.32-1.83-2.07-4.14a.94.94,0,0,1,1.29,0c-1.54-2.08-4.23-3-5.18-5.7,3.39.67,5.89,2.23,8.81,3.37-2.35-2.75-6.87-5.57-9.58-8.81v-.52c4.49.95,7.22,3.66,10.61,5.7-2.13-3.3-7.12-6-8.28-11.14,4.39,2.6,7.68,6.31,11.39,9.59-2-3.78-6.85-7-7-13.47,3.48,3.68,6,8.28,9.58,11.91C39.64,217.16,37.13,214.06,37,208.6Z" fill-rule="evenodd"/>
    <path d="M71.27,327.81c3,3.69,4.69,8.77,7.25,12.94-.48-3.3-1.87-6.74-1-9.84,6.79,7.36,7.91,20.38,7.25,35.19-2.47,7.48-8.8,24.37-.52,30,4.52-1.22,1,1.48,4.14-.52-.16,3.13,2.75,1.49,4.66,5.17-7.38-.3-9,5.13-14.49,6.73-13.14.27-28.4,3.41-37.77,5.69.12-1.43,2.92-.19,2.59-2.07-2.79,0-5-1.67-8.28-1.55-5.79.21-12.31,5.41-16.56,0a9.7,9.7,0,0,0,2.59-4.14c3.92-3.4,14.17-3,17.07-5.69,4.11,1.33,2.87-1.85,6.73-1-.28-4.23-2.73-6.16.51-8.79-1.18.14-1.94-.13-2.06-1,.34-4.78,3.56-10.07,3.62-14.49,6.14-5.17,6-13.34,7.76-19.66-.89-1.7-3-2.18-2.59-5.17,2.94.16,5.22,1,7.76,1.55.64-2.71-5.56-5.31-4.14-8.79,4.07.25,6.63,4.75,9.32,4.65-2.29-3-5.14-7.78-4.66-11.9,3.78,1.06,5.7,6.71,8.28,7.25-1.88-3.18-4.6-8.09-3.62-12.42,4.73,1.13,5.08,9.4,8.27,10.35-1.27-3.45-3.94-8.05-2.58-12.42Z" fill-rule="evenodd"/>
    <path d="M159.11,271.15V266c1.09-3.19.51-8.05,3.42-9.42,3.22.39,1.47,5.41,2.15,7.28,1.55-3.16,2.23-7.18,6-8.14,2.5,1.33.49,5.18-.43,6.86,2.72-1.06,4.56-5.07,8.57-3.43.34,1.67-3.77,2.82-1.72,3.43,3.62-2,6.74-1.3,9.85-.43,1.89,3,7.77,5.58,9.42,10.27,9.32,4,17.54,9,18.42,21.41.37,1.38-1.11.89-1.29,1.72,10.55,2,18.18,6.94,32.12,5.56,1.94,1.49,2.8,4.05,5.14,5.14-9.1,2.29-19.41-3.16-25.7,1.29,4,3.4,5.34,9.9,8.57,14.13.13.84-.58.85-.86,1.28,1.08,1.5,3.48,1.67,3,4.71-1.06.56-2.08-.95-2.14,0,1.89,1.54,4.77,2.08,4.71,5.57-2.13.68-3.46-1.65-4.28-.85.93.26,2,2.3.43,2.56a14.6,14.6,0,0,1-5.57-2.56c-2.08.85,2.69,1.71,1.71,4.28h-1.71c-2.5-1.64-6-2.3-8.14-4.28-14.88-1.25-21.62-10.64-29.12-19.27-7.72,2.79-18.31-3.47-24-1.29-3-6.66,5.81-10.12,11.14-12.42,2.4-12.42-9.77-16.83-17.13-22.27A9.81,9.81,0,0,0,159.11,271.15Z" fill-rule="evenodd"/>
    <path d="M346,243.27h1.4c.58.76-.31,1.59-.24,2.57,1.19-.42,1.76-2.14,3.27-.94-.24,5.82-3.94,8.18-5.83,12.36,2.37.12,6.4-4.22,8.62-1.4v.93a12.25,12.25,0,0,1-3.49,3.5c.84.32,1.88.45,2.1,1.39-1.42,3.79-5.57,4.85-8.16,7.46.5,1.34-.44,3.09-.7,4.43.17.77,1.08.79,1.16,1.63-1.42,3.23-4.09,5.94-3.49,10.49-.07.79-1,.68-1.17,1.4.48,5-.16,8.22-.93,12.35-1.29.05-1.1-1.38-2.1-1.63-.9,1.55,1.19,3.6-.46,4.66-1.5.35-.53-1.54-1.4-1.4-1.39.23-.5,3.53-2.56,3.73-.91.2-.83-.57-1.4-.7a9.55,9.55,0,0,0-.93,1.17c-.75-.27-.6-1.42-1.17-1.87a8.48,8.48,0,0,0-3.5,2.1c1.69,2.2,5.15,2.63,6.76,4.9a17.39,17.39,0,0,1-4.66,7.92,16.42,16.42,0,0,1-2.8-.93c-.4.69.26,2,.7,2.56-.45.82-1.95.37-2.79.23-.06-1.57-1.73-1.53-2.1-2.79-.74,2.26.49,3.74-.47,5.13-.47-.23-.92-.48-1.4-.7-.48,1.22-1.15,3.5-2.56,3-1.05,0,.1-.71-.23-1.4-1.3-.17-2.31-.24-3-1.4-1.16.32-1.07,1.88-1.17,3.26h-.46c0-.72-.53-.24-1.4-.46a7.46,7.46,0,0,1-.93-2.8c-.55-.33-1.82,1.26-2.1-.47-.57.13-.5.91-1.4.7-2.11-1.23-4.07-2.61-6.06-4,0-.55-.4-.69-.23-1.4,0-.69-1.1-.3-1.4-.7,1.47-4,4.56-6.47,6.76-9.79a1.91,1.91,0,0,0-1.4-.46c-.48.38-.59,1.12-.93,1.63-2.18-.16-3.74-.93-5.6-1.4-1.11.6-.41,3-1.86,3.26-1.76.25-2.33-2-3.73-.7a1.61,1.61,0,0,0-2.33-.93c-.3-.47-1.13-.42-.93-1.4-.83-.36-.14.8-.7.7-1.06,0-1.08-1.09-1.4-1.86-.87-.25-.66.58-1.4.47-1.08-2-3.11-3.1-3.5-5.83-.7.15-.65,1.06-1.16,1.4-3.49-1.87-3.16-7.57-6.76-9.33.18-1-.36-1.19-.23-2.09-3-1.28-4.93-3.62-6.76-6.06-.62,0-1.33.08-1.63-.24,2.1-2.93-1.24-3.85-1.87-6.06-2.73-1.84-7-2.21-10-3.73-1.38-.68-3.4-2.1-3.5-4a3.7,3.7,0,0,1,2.57-.46c-.3-.87-1.26-.38-.7-1.63-2.64-.82-5.85-2.19-5.36-5.37,1.38-.5,2.64.65,4.43.47-2-1.89-4.05-3.72-5.36-6.29v-.47h.23c.42-2.27,2.23-.21,3.26.23-.3-1.45-2.54-2.06-1.86-3.72,3.48.45,6.38,2.71,9.32,4.42,9.1,5.3,17.53,11.25,26.8,16.09a20.73,20.73,0,0,0,5.13,4.19,11.54,11.54,0,0,0,14.92,6.76c.73.35,1,1.18,2.09,1.17,1.15-.57,1.65-1.78,1.87-3.27,1.46-1.46,4.26-1.29,6.06-.23.57.59.26,2.07,1.16,2.33,4.67.05,7.9-3.26,11.66-4.89C328.21,263.72,336.53,252.93,346,243.27ZM322.45,304.8c.48-.07,1.13.64,1.63.24-.5-.35-.54-1.17-1.4-1.17C322.61,304.18,322.35,304.32,322.45,304.8Z" fill-rule="evenodd"/>
    <path d="M541.64,200h-5.57v-.93c-3.69,0-6.53-.89-8.35-2.78,0-5.12,4.42-6.5,3.71-10.2-19.41,2.64-31.79-16-51-19.49-.27-1.63,4.37-2.87,1.86-3.71-3.07,1.91-9.55,5.27-13,3.71.63-1.9,6.77-3,4.64-4.63-1.94,1.46-4.88,1.92-8.35,1.85-.29-2.14,2.68-1,2.78-2.78-2.83-.67-3.38,1-5.56.93v-1.86c3.31-1,6.2-2.45,9.27-3.71h-9.27v-.93c1.92-1.78,6.34-1.07,8.34-2.78-2.8-.29-7.21,1-7.42-1.86,14.38,1.1,26.61-.55,41.75,2.79,12.56,2.76,21.5,13.58,31.54,13,6.74-.4,9.91-7.75,15.77-8.35-.78,2-2.4,3.17-1.86,6.5,10.66-4.85,23.57-15.36,39.89-17.63h4.64c-.3,2.17-4.05.9-4.64,2.79,3.33-.55,4.49,1.08,6.5,1.85v.93c-1.35.51-4.8-1.08-4.64.93,2.85-.69,1.78,2.54,4.64,1.85v1.86h-1.86c-4,1,.94,1.12-.93,3.71,0,.05-5.27-1.87-3.71,2.78-2.37.43-5.26-3.28-6.49-.93,1.65.68.13,1.69,0,2.79-15.86.25-24.17,16-38,21.33,1.11,2.6,1,6.4.93,10.21C545.14,198,542.17,197.78,541.64,200Z" fill-rule="evenodd"/>
    <path d="M242.5,384.47c-1,2.95-1.24,5.32-3.25,7-2.2,1.88-5.45,1-8.14,2.71.25.47.85.6,1.63.54a13.07,13.07,0,0,1-4.61,1.09c.71.6-.94.68.27,1.08-2.13.32-3.86,1-4.88,2.44-7,.09-12.56,3.36-17.36,4.89-1.79.56-3.32.46-4.61,1.35-2.24,1.54-3.3,4.45-5.7,6,.63,3.17,2,5.61,2.71,8.68-.9,1.06-1.76.5-3.52.54-1,.5-1,2.08-1.9,2.71-1.26-.16-1.64.37-2.44,0-.92.71-1.09,2.18-2.44,2.44s-1.36-.63-2.17-.81c-1,.51-.75,2.33-1.9,2.71-1.41-.4-3-.66-2.72-2.71-1.14.31-1.45,1.44-2.44,1.9-1.37-.9-2.35-.9-4.06-1.09a4.59,4.59,0,0,1,.81-3.25c-1-.15-1.74,2.24-3.8,1.9a5.42,5.42,0,0,1,1.09-3.8c-.83,0-3,1.89-4.61.54v-1.62a13,13,0,0,0-2.45-1.09,3.88,3.88,0,0,1,1.36-3.25c-1-.51-2.41-.66-3-1.63-.21-1.74,1.11-2,1.62-3-.51-.75-1.1-1.43-1.62-2.17.16-1.48,2.22-1.86,2.17-2.72-.38-.19-2.27-1.84-2.17-2.17.77-2.56,11.86.4,15.73-1.08.14-1.4-1.55-1-2.17-1.63a1.72,1.72,0,0,1,.27-1.35,16,16,0,0,0-2.44-.55c-.23-.76-.88-1.11-.81-2.17-1.42-.24-1,1.33-2.45,1.09-.89-.65-.43-2.64-.54-4.07-1-.19-1.16.46-2.17.27-3.25-3.85-1.92-8.21-4.61-12.75a5,5,0,0,1-2.17.27c-.86-1.22-1.07-3.09-2.44-3.79,0-.86,0-1.64.54-1.9-.55-.44-1.42-.57-1.89-1.09.25-2.17.43-3.28-.55-4.33a12.59,12.59,0,0,1-1.9-2.45c-.38-.58-1.12-.57-1.62-1.08s-.56-1.58-1.09-2.44c-1.35-2.21-2.64-1.92-1.9-4.07-1-1.2-3.12-2.61-3-4.07a2.11,2.11,0,0,1,2.17,0c-1.43-2.09-3.11-3.94-4.61-6,2.57-.12,4.59,2.64,7.32,3.26-1.83-2.05-4-3.79-6-5.7-.1-.46.22-.51.55-.54-1.31-.59-1.84-2-2.17-3.53,3.19,2.24,5.79,5.06,9.22,7.06-1.85-3.13-6.33-6-6.78-11.39,3.09,3.41,5.68,7.33,9.49,10-2.74-3.68-5.5-7.34-6-13.29,2.18,3.43,4.29,9.27,8.14,11.93-1.71-3.44-4.37-7.28-3.8-12.74.18-1.69.52,1.63.82,2.71a29.93,29.93,0,0,0,6,11.12c-.94-2.68-2.64-6.94-3-11.12,2,6.87,4.33,12,8.68,16.82,4,4.47,9.41,7.93,12.75,12.47,2.27,3.09,4.1,6.87,6.51,10.31s4.13,7.39,6.78,10c.6.6,1.86.64,1.62,1.36,3.24.34,4.41,3.44,8.41,3.53,3,.06,7.58-2.76,9.22.54,3-.17,5.34-1.49,8.41-1.63,3.24-.15,6.53,1.26,9.5.27,4.11-1.36,5.35-7.88,8.4-9.76v2.17c.86.13.62-.84,1.63-.55Z" fill-rule="evenodd"/>
    <path d="M495.25,235.65h1.05a14.51,14.51,0,0,1,5,2.3c2.85,1.63,6.12,1.92,9.81,2.71.75.16,1.5.72,2.3.84a38.7,38.7,0,0,0,12.53-.63c5.21-1,10.46-4.06,14,.42,2.08.35,4.32,1.13,6.47,1.67s4.74.54,5.85,2.3c-2.71.74-5.81-.74-8.77-.63-1.34.05-2.56.67-4,.83a62.87,62.87,0,0,1-13.15-.2c-5-.45-9,1.71-13.16,1.67-.28,1.12.4,1.27.84,1.67a23.69,23.69,0,0,0,5.84,8.56,30,30,0,0,0,8.56,10.65,7.12,7.12,0,0,1,2.09-.21,9.05,9.05,0,0,1-6.68,0,9.82,9.82,0,0,0,4,5.22c-4.5,1.61-6.64-2.48-8.15-5.22.29,3.47,2.53,6.8,3.55,10.23-4.58.46-6-4.06-7.1-7.72-1.19,3.07,1.82,7.55.84,10.44-4.87-1.12-4.94-7-6.06-11.91-1.3,2.63-.89,7.21-1.25,10.44a.9.9,0,0,0-.83.42c-1.84-1.5-3.71-3-3.34-6.68-4.19-1.1-5.91-4.68-10-5.85-.13,1.11-.76,2.54-.62,4.18.07.91.77,1.4,1,2.29,1.52,5.06,1.51,13,1.46,18.8a16.94,16.94,0,0,1-1.88,7.51c-.4.28-.84-.15-1.46.21.08,2.05-.81,2.22-1,4.18a2.64,2.64,0,0,1-2.72-1.67c-1,1.25-.77,3.68-2.08,4.59-2-.4-2.2-2.54-2.3-4.8-1.57,1-.62,4.53-2.3,5.43-5-1.64-1.27-10.38-.83-14.41-1.42-.11-1.2,1.66-1.47,2.51-1,3.1-2,6.5-3.55,8.77-3.33-.77-2.11-6.6-1.25-8.15-.46-.72-1.79-.57-2.3-1.25-.36-1.37.31-3.78-1.46-3.76-.49-1.73-.57-3.88-2.09-4.59.32-3.45-2.24-5.12-1.46-8.35-.32-.78-.94-.94-1.87-.63-.49-1.32-1.84-1.78-2.09-3.34a4.12,4.12,0,0,0-1.46-.63c-.25-2-1.62-2.84-2.93-3.75v-1.26c-2.43-1.75-2.88-5.47-5-7.51,0-2.36-1.29-1.9-1.46-4.39-9.22,1.58-16.29,4.26-26.73,4.8-.42-.46.43-1.37-.62-1.46,1.41-1.3,3.18-2.24,4.38-3.76,1.78-.24,4.08.05,5.43-.62,3.31,1.56,7.82-.28,11.27-1,.5-.55,1.64-1.56,1.47-2.09,2.86-1,7.13-2.79,10.65-4.38.49-.69,1.24-1.12,1.67-1.88C473.27,243.18,481.66,236.82,495.25,235.65Z" fill-rule="evenodd"/>
    <path d="M274.13,346.42h1c.25,2.19.68.5,2.42.69a37,37,0,0,1,1.72,3.45c2.14-.19,3.35,2.64,4.84,4.15.7-.22.09-1.75,1.38-1.38,4.73,8.95,14.93,10.54,20.71,18.64,10.62.22,22.95,1.67,28.32,8.29,2.88.46,4.5,2.17,6.21,3.79.27.08.68,0,.69.35,14.77-.65,28.07-2.78,41.09-5.18-.06,1-.6,1.47-1.73,1.38.3.86,2.41-.1,2.77.69-11.46,2.94-19.86,8.92-30,13.12-.1,3.35.54,3.58.69,6.22,8,2.7,11.93,9.25,21.4,9-3.22,3.68-9.33,4.48-14.5,6.22-2.26.56-5.64-.45-6.56-.69-9-2.38-19.88-2.08-24.17-9-8.95,3-17.55,0-25.2-.69-6.45-.59-11.88,1.64-18.3,2.07,2.49-4.88,8.57-4.36,12.43-6.56,1.38-.78,1.89-2.53,3.11-3.45,3.79-2.86,8.64-2.75,13.12-5.18-2.41-6-8.66-8.46-15.89-10-2.85-.61-5.94,0-8.63-.69-3.48-.95-5.76-4-8.63-4.84C278.54,368,273.14,359,274.13,346.42Z" fill-rule="evenodd"/>
    <path d="M153.86,488.65h-.78c-1.53-.74-3.41-.42-5.48-.59-5.28-.43-10.74-2.47-16.23-2.93-1.53-.13-3.17.19-4.7,0-2.06-.26-4-1.27-6.06-1.18-2.33.11-4.23,1.63-6.46,2.15a85.63,85.63,0,0,1-15.84,1.18c-.44.08-.63.42-1,.59-1.5,0-2.9-.82-4.7-1.18-6.92-1.4-17.85,2-22.1-2.93-1.9-2.22-2.86-5.6,1-6.66-7.24-2.66-15.43.78-23.09.79v-.39A56.13,56.13,0,0,1,56.25,475c2.7-.71,5.71-1,8.21-1.95,1.73-.67,3.08-1.87,4.5-2.54a13,13,0,0,1,5.48-1.57c2,0,4.27,1.16,6.65.78,1.57-.25,3.14-2,4.89-1.95A25.51,25.51,0,0,0,83.64,453c-.83-1.71-2.27-3.2-2.55-4.5-.52-2.43,1.66-4.81,3.52-6.45,2.12-4.64,6.66-6.84,10.37-10,1.51-1.27,2.93-2.72,4.3-4.1s2.45-3.51,4.7-3.72c.91,1-.21,2.22-.39,3.32,1.15-.85,3.39-1.78,4.89-.58,3.79-1.95,6.21-6.31,9.58-8,1,1.14-1,2.33-1,3.71,1.88-.33,2.67-1.76,4.69-2,.29,1.76-1.67,2.2-1.37,3.32.58.14.85.59,1.76.39.21-1.1,2.42-1.61,3.13-1-.24,1.13-1.89.84-1.76,2.34,1.26.64,2.77-1.09,4.3-.19-.1.68-1.17.39-1,1.37.12.66,1.25.31,1.17,1.17.15.87-1,.39-1,1.17,1.79,1-.08,3.3,1.76,4.31,0,1-.9,1.06-1.17,1.76.85.53.17,2,.19,2.35s.53.67.59,1c.46,2.27-.87,3-2.15,3.53,1.31,1.39-1.4,2.11-1.56,3.91a8.92,8.92,0,0,0,.39,1.76c.31,1.72-.35,3.13.58,4.11-.8.4-.84,1.08-.58,2.15,0,.55-.93.24-.78,1,.55,1-.39,1.91-.59,2.93s0,2.42-.2,3.91a28.12,28.12,0,0,1-1.37,5.28c-.55,1.61-1.89,4-1.76,4.89.27,1.89,3.34,2.26,2.55,4.7,4.51,0,8.23-.72,11.34-.78-1.19,1,1.19,1.11.78,2.54-.47.38-1.58.12-1.76.78.85,0,.36.34.39,1,.51.72,2.17.47,1.57,1.76-.84.21-3.63-.38-4.3.59,3.9,2,10.55,1.27,14.47,2.74A54.58,54.58,0,0,1,156,483.17a2.83,2.83,0,0,1,2.16,2.15c2.76-.23,4.13.71,6.45,1.18-.52.39-1.79,0-2.35.39.25.93,1.63.84,2.16,1C161.29,488.91,156.83,487.71,153.86,488.65Z" fill-rule="evenodd"/>
    <path d="M534.74,399.2a53.9,53.9,0,0,1-12-2.17c-5.49-2.12-10.69-4.52-14.78-8a29.46,29.46,0,0,1-2.63-2.62,24.91,24.91,0,0,1-1.66-2.14c.64-.08,1.58.15,1.71-.43-2.33-.73.11-1.6,0-2.56-.78-7.06-14-7.42-15.79-14.52,1.29-2.21,1.7-2.78,1.28-6.4,8.75-2.35,12.22-10,22.62-10.67,2.93-3.34,6.9-5.63,9.82-9-1.91-1.85.71-2.53.85-4.69-1.42-1.27,1.22-9-2.13-6.83-.6-1.63,1.12-3.11,0-3.85a3.67,3.67,0,0,0-.43,2.56h-1.28a35.19,35.19,0,0,1-22.62,19.22c-4.61,1.15-11.24,3-15.8,3.41-4.12.39-5.44,1.7-8.11,2.14-7.51,1.22-14.35-2.25-22.2-1.29-2.5.31-4.61,1.89-7.26,2.57-15,3.84-23.17-7.2-34.15-7.69.23,2.48,3,2.43,3.84,4.27-.93-.1-2.29-1.92-3-.85.62,1.51,2.19,2.07,3.41,3-.79.4-1.43-1.28-1.71,0,2.92,2.54,6.14,5.38,11.53,6s10.89-1.79,15.79,0c-3.2,1.49-6.13,3.26-8.11,6,4.41-1,10.41-4,15.8-2.13,4,1.37,8.12,6,12.81,8.13,13.2,6,20,2.11,26.89,6v2.14c1.34.65,3.56.42,3.42,2.56,4.77.81,7.66,3.51,12,4.74,1.27,1.88,5.68,7.49,15.72,12.25,12.26,5.81,29,11.94,25.49,25.16,0,0,8.38-13.55-24.52-25.8,0,0,16.16,5.35,31.94,2.9,28.25-4.38,40.43,3.58,45.35,9.14C582.81,391.37,556,400.69,534.74,399.2Zm62.13,10.43a32.58,32.58,0,0,1,3,4.73A15.54,15.54,0,0,0,596.87,409.63Z" fill-rule="evenodd"/>
    <path d="M556.5,376.36h-.31c-1.26-2.5-.22-7.3-1.57-9.71-.08,2,.32,6.62-1.25,8.14-1.42-4-.3-8.73-.63-13.46-.07-.46-.93-.11-.94-.63,1.3-8.57.28-17.29,2.82-25.37,2.5-7.93,5.71-15.39,6.27-23.49.15-2.3.15-7-.94-8.77-2.52-4.17-9.85-2.41-12.84-7.2-6.29.39-11.2,2.17-17.54,2.5v-.31c4.67-3.81,12.15-3.34,17.22-5.64,2-.89,3.38-2.93,5-3.13,5.22-.65,5.66,5.81,9.71,1.56,3.82-9.58,6.82-22.6,5.64-36-.52-6,1.42-9.21,2.51-14.1,1.16-5.23.72-9.2,3.44-11,1.91-4.36,2.5-10,5.32-13.47,1.16,3.95-2.09,7.67-1.87,10.65,2-3,2.88-7.13,5.63-9.4.55,3.55-2.17,6.33-3.13,9.4,2.46-1.53,3.23-6.35,6.27-6.26-.52,2.92-2.43,4.46-3.45,6.89,2.34-.63,3-4.46,5.64-3.76.13,1.69-1.28,1.85-1.25,3.44,1.88,7.3.54,15.11,3.44,21-1.8,1.48-6.84.88-8.46,1.56,2.68.87,7.46-.35,8.77,1.88-.33,1.28.13,2.43-.31,4.08-1.18.24-1.5-.39-2.5-.32.67,1.83,3.75,1.26,2.81,4.7-1.15-.41-2.85-.28-4.07-.63,1.14,1.27,3.84,1,4.39,2.82-.84,5.38-1.08,11.64-2.51,15.35-.59.07-.69-.35-1.25-.31-.15,1,1,.71.63,1.87-1.44-.56-1.18-.07-.94,1.26-.41-.32-1.16-.31-1.57-.63.24,2.55,2,5.23-.31,7.52.55.7,1.76.74,2.19,1.56a3.45,3.45,0,0,0-.31,3.14c.94.62,1.57,1.55,2.81,1.88,2.22-.72,4.36-3.16,7.21-2.19,1.31,1.34-.6,1.22-.63,2.81.64.72,2.08.64,2.82,1.26-1.21,2.73,1.89,3.7,2.82,5.32a7.93,7.93,0,0,1-4.07,2.19c.25,3.07-2.79,2.86-4.07,4.39-2.42-.85-3.06-3.53-5.33-3.76-3.79-.39-2.8,3.69-6.26,4.07-.45,1.39,1.06.82.94,1.88-1,1.27-2,2.6-3.13,3.76,5.33,5,.28,17.13-1,24.74-.75-.13-.67.57-1.56.32,2.46,1.46-.92,4.43-1.57,6.57-2.9,0-4.64-1.2-6.89-1.88,1.11,2.14,3.86,2.62,4.7,5-1.84,1.91-1.61,5.9-3.76,7.51-.29,4.84-3.63,8-5,12.22,0,1.39,1.14,4.32-.62,4.7-1.8-2-1.74-5.79-3.45-7.84.27,3.11,2.84,8.7,0,11-1.43-3.69-1.46-8.77-3.13-12.22C557.46,367.79,558.66,373.5,556.5,376.36Z" fill-rule="evenodd"/>
    <path d="M662.65,408.14c.4.12,1.29-.24,1.37.19a37,37,0,0,1-4.71,2.36c0,.27,1,.4.39.59-1.81,2.05-5.31,2.41-7.65,3.93-.23,1-1.13,1.36-2,1.77-.4.27.19.67-.19,1.18-1.61,1.47-4.42,1.74-6.09,3.14-.49.14.65.59,0,1a3.75,3.75,0,0,1-2.16,1c-.59.36.56.6.19,1.37a6.61,6.61,0,0,1-2.75-1.17c-.15.68,1.65,1.1,2,2-.18,2.57-1.5,6.35-3.54,8.25-.24,2.73-2.19,5.26-2.75,8.05-.09.5.12,1.11,0,1.57s-.59,1.1-.59,1.77c0,2.1,1.64,3.68,1.77,5.89a3.75,3.75,0,0,1-1.57-.2c6,3.71,15.73,3.78,20.81,8.45-1.21,1.64-3.49-.14-5.29-.59-2.09-.53-4.41-.62-6.09-1.38,2.1,2.62,8.22,2.91,10.21,6.29-1.9.48-3.5-.93-5.11-1.57-3.54-1.42-7-2.67-10.4-3.93-5.73-2.11-12.34-3.06-20.23-3.34-2.51,1.68-4.66,3.72-7.86,4.71-2.26,3.82-6.91,5.26-11.58,6.68.88.42,2.06.55,2.55,1.37-1.39,1-3,1.33-5.1,2a6.93,6.93,0,0,1-.4,4.52c-1.51.38-1.81,2-2.55,3.14a1.68,1.68,0,0,1-1.18.19c-.54.71-.88,1.61-1.37,2.36-3.06,1.39-4.11,4.79-5.89,7.46-1,0-.69-1.28-1.38-1.57-1.59,3.65-3.9,6.57-5.69,10-.94.15-.91-.66-1.18-1.17-.7.67-.77,2-1.38,2.75h-.39c-.5-.36-.48-1.23-.78-1.77V490a66.57,66.57,0,0,1,2.16-9.82c.92-3.23,1.44-6.59,2.35-9.62.48-1.59,1.64-3.2,2.36-4.91.84-2,1.28-4.32,2.16-5.7,2.36-3.73,8-4.72,12.37-6.67a53.57,53.57,0,0,0,9-4.72c-1.76-1.66-6-2.91-9.42-2.94-1.88,0-2.38.67-3,.39,0-3.86,3.53-1.83,5.89-2,2.81-.17,3.56-1.63,5.89-2.16,1.41-.33,2.91-.09,4.32-.4,4.81-1.06,12.46-6.63,13.36-10.6a17.44,17.44,0,0,0,0-5.3c-.16-1.44-1.49-3.43-1.18-5.11.41-2.22,6.31-3.6,9-4.52,3.95-1.32,7.57-1.89,10.8-2.74C648.38,411.1,655.8,409.72,662.65,408.14Z" fill-rule="evenodd"/>
    <path d="M413.93,424.58c-.54-1.86,1.73-.91,2.83-1.14v.28c10.63,1.31,22.46,5.84,33.18,7.94,8.48,1.67,17.49,1.24,22.13,6.53,2.16,2.47,2.52,7.2,5.67,8.22.31-2.91,1.88-7.88,6.52-5.67.49.23,1,1.44,1.42.57,2.08-3.74,4-9.72,9.07-10.78,3.7-.77,8.76.2,13.34.57,12.85,1,27.54-2.79,38.57-.85v.28c-4.29.91-9,1.44-13.33,2.27,3.3.48,7.25.31,10.21,1.14-2,1.86-5.43,1.31-8.23,1.41a32.09,32.09,0,0,1-4.82.29c2.92,1.1,6,.31,8.22,2-1.84,1.28-5.62.61-8.22,1.13,3.86.77,8.83.31,11.34,1.71-2.71,1.64-7.25,1.44-11.06,2,2,.82,5.22.46,5.68,2.84-3.08,1-7.86.77-11.92.28,1.59,1.26,4.14,1.53,4.54,4-1.56,1.54-5.64,1.83-8.51,1.14.8,1.62,2.69,2.1,2.27,4-.54,2.4-5.72,3-7.66,1.13.16.8.42,1.48.57,2.27-1.76,1-1.76,2.75-4.25,3.4,1.29,2.62-3.2,4.52-4.82,2.56-1.6,3.5-4,6.72-8.23,6.8-1.26-1.19-3-1.89-3.69-3.68.59,7.46,7.41,11.12,9.08,18.43-1.18-1.15-.9.47-1.42,1.42-.38-.09-.23-.71-.28-1.13-.22.63-.94.75-.85,1.7-2-.61-3,.09-5.39.85a7.12,7.12,0,0,0,.28-2.84c-1.12.77-1,2.8-1.7,4-2.48-2.63-6.08,1-8.79-.85-.17.91.53.88,0,1.42-.45-.69-1.25-1-1.7-1.7-.78.89.4,2.23,0,3.69h-.57c-1-.86-.77-3-1.7-4a26.72,26.72,0,0,1-.28,3.41c-1.37-1-1.15-3.13-.57-4.82-2.09-.28-4.33-.41-5.11-2,.56-3.22,1.49-6.08,2.27-9.08-1.33-2.45-1.89-5.66-3.12-8.22-.16,3.27-.37,4.75-1.42,7.09a2.62,2.62,0,0,1-3.68-1.42c-1.69,1.36-4.67-.53-4.54-2.83-.34,1.17-1.26,1.76-2.84,1.7-1-.22-.89-1.56-1.41-2.27-1.84,1.68-4.22-.59-4-2.84-3.08,2.7-5.37-2.61-3.68-5.1-1.2,4.36-11.14,5.13-6.24-.85-1.72.35-2.91,1.25-5.11,1.13-2.35-3.05,2.07-5.58,3.69-7.37-3.23.72-8.19,2.49-11.91.85-.46-3.86,3.52-3.28,5.39-4.82-3.07.73-8.16.52-10.21-1.42,1.35-1.87,4.18-2.24,6.8-2.84-.82-.66.41-1.65.86-2-4.52-.08-10.39,1.31-13.62-2.27,2.4-1.76,7.09-1.23,9.65-2.84-5.21-.27-10.74-.23-13.62-2.83,2.75-1.39,7.24-.62,10.21-1.14-3.68-1.23-9.14-.69-11.34-3.4,2.27-1,5.47.66,7.65-.29-2.84-.74-6.16-1-7.65-3.11,3.15-1,7.15.91,9.92.28C422.83,427.77,418.74,425.81,413.93,424.58Z" fill-rule="evenodd"/>
    <path d="M612.8,164.47V164c2,.49,2.36,2.69,5.05,2.52-.8-2.9-4-3.41-4.54-6.56,3.27,3.12,7.55,5.24,10.6,8.58-1.36-3.18-6.14-7.33-9.09-10.6.57-1.48,1.45.83,2,1,1.26-.35-.94-1.35-.51-2.53,7.55,5.93,13.34,13.6,20.72,19.7,5.5,0,6.89,4.22,9.09,7.58,7.48.12,7.81,11.7,10.61,18.18,8.15,1.78,17.92-7.37,21.72,1,.84.85,2.43.94,3,2-13.57,5-21.65,19.72-36.88,24.76,0,1.57,1.59,1.44,1,3.53-2.21,2.79-6.47,1-8.58-.5-8.6,2.85-7.29,15.62-18.69,15.66-.24-1.41-.25-1.42-2-2,1.28-11.41-1.38-20.92,5.56-28.29,4.35.33,10.24,4.44,12.63-.51-8-.72-11.89-10.47-10.61-17.17-3.79-5.32-4-13.24-6.56-18.69h1.51a21.36,21.36,0,0,1-3-5.56c1.54-.37,1.49.87,3,.51-.83-1.32-2.05-4.57-4-5.56.27-2.34,2.15,1.22,4,.5C616.91,169.11,614.69,167,612.8,164.47Z" fill-rule="evenodd"/>
    <path d="M264.27,416.69H266c.84,3.17-.89,6.32-2.61,8.25,2.76-.44,4.4-5.74,7-7.82,2.53,1,.71,5.64-.43,6.95,1.59.57,2.32-3.46,5.21-3,.38,3-2.68,3.92.43,3.91v1.3a13.49,13.49,0,0,1-3,3c.05.84,1.62-.67,2.17.43a3.41,3.41,0,0,1-2.17,3.91c-.31,1.19.87.88.87,1.74-3.92,5.47-3.75,12.41-9.55,16.07V454c-.94.36-1.48,1.12-3,.87,0,5.94-4.81,8.09-10.86,9.12-1.24,3.26-5.06,3.13-8.25,3.47.42,4.77,4.37,4.42,8.25,6.51a98.75,98.75,0,0,1,13.46,8.69c-2.33,2.38.26,7.13-4.34,7.38a8,8,0,0,1-.44,3.48,8.16,8.16,0,0,1-3.47.43c-.47,5.17-7.6,3.7-10.42,6.52h-1.31a8.36,8.36,0,0,0-1.73-2.17c-1.12,0-.7,1.62-1.31,2.17h-2.17c0-.87-1.18-.55-.87-1.74-.27.74-1.31.72-1.73,1.3-2.06-.55-3.08-2.13-5.65-2.17-5.29-5-.33-13.4.87-21.28-.48-1.11-2.33-.85-3.91-.87-10.31-6.91-14.4-20.05-29.1-22.58a1.91,1.91,0,0,0-.87-1.74v-1.3h.44c1.45-5.89,6.68-.11,7.82,2.17,3.72-1.52,8.76,7,14.33,2.61-.44-3.49,1.4-5.49.43-8.26-.83-1.77-4-1.19-5.21-2.6,2.44-1.14,3.25-3.61,5.65-3.91,6.48-.8,5.28,6.79,9.12,10,7.19-1,9.42-6.68,13.89-10.43,2.11-1.76,5-2.35,7-3.9C255.48,431.66,260.86,422,264.27,416.69Z" fill-rule="evenodd"/>
    <path d="M441.48,466.41h-6.77c1.35-1.24.42-4.74,2.9-4.84A19.32,19.32,0,0,1,441.48,466.41Z" fill="#fff" fill-rule="evenodd"/>
    <path d="M644.32,284.5l4.36,3.72c1.28,3.79,8.55,5.75,7.87,10-2.23,5.31-6.13,10.75-7.4,16,2.16-.31,4.3-.84,6.55,0,3.38-1.22,6.73-2.79,10.16-3.46-1.93,2.88-5.53,2.84-8.05,5.59-.76.7.67.25.08,1.06-3.85,3.12-2.86,11-.88,15.63,1.41,3.28,5.71,3.32,8.61,3.74,2,.29,6.25,0,7.52,1.17s.54,3.18.07,5.3-.37,4.09-.63,5.36c-1.93,9.37-6.42,20.14-11.94,30.14-.34-1.14.35-2-.71-2.25a31.32,31.32,0,0,0-1.06-11.06c.92-1.13.88-2.19,1.16-3.27.3-.79-.74-1.48-.71-2.25,1.28-2.57-1.24-4.85-.59-7.38-1.15-2.39-3.53-2.37-5-3a19.21,19.21,0,0,1-8.45-6.23c-1-1.39-1.25-3.17-2.31-4.59a11.26,11.26,0,0,0-8.86-4.61c-.71.64-1.48.55-2.19,1.41-4.48.59-9.16,3.87-13.8,6.58-3.8,2.22-7.05,5.52-10.81,6.52a28.16,28.16,0,0,1,5.43-5.21c2.92-2.29,6.58-3.93,9-6.38.52-.5.6-1.25,1.11-1.67,3-2.46,7-3.75,9.72-6.79,1.43-1.61,1.93-3.67,3.45-5.58a63,63,0,0,1,.52-9.07c.29-3,0-6.39.52-9.06s1.19-5.45-1.48-7.49c0-.41-.25-.8.43-1.27-3.25-4-6.6-8.89-9.33-12.88-2.47-3.6-5.59-6.84-6.71-11a5.73,5.73,0,0,1-2.41-1.4C626,270.74,636.12,280.27,644.32,284.5Z" fill-rule="evenodd"/>
    <path d="M417.05,468l.31.36c-4.2,2.16-8.11.43-12.14.28,4.14,1.74,8.39,1.85,12.53,3.4a8.15,8.15,0,0,1-5.42,1.6c-2.6-.19-5.32-1.6-7.37-1.37,3.74,1.87,7.56,2.58,11.24,5.13l-.35.31c-4.5,1-8.78-.91-13.09-2.61,1.43,2.41,6,3.65,6.86,6.14-2.34,1-4.51-.41-6.71-1.32-.74.39-.45.85-1.09,1.25-3.37,0-6.71-.39-10.2,1.08a4,4,0,0,0-4.31,0c-.8-.48-1.64-.33-2.39-1.34-2,.49-4,.45-6.06,1.22a5,5,0,0,1-1.56-1.44,5.18,5.18,0,0,1-2.43,1.48c-.62-.55-1.28-.68-1.88-1.46a7.23,7.23,0,0,0-2.08,1.18c-5.62-1.49-11.73-1.82-16.77-4.38-.88,4.75-.1,9.62-.55,14.4-1.18.93-2.12-1.34-3.35.42a4.91,4.91,0,0,1-1.94-.81c-1.2,1-1.35,1.58-2.45,1.82-2.24-1.4-4.42-4.82-6.35-6.27-1.2-4.73,2.76-9.09,4-13.65-1.54-1.17-4.08.23-5-2.52-.8-.38-1.67.21-2.51.32-.93-.11-1.18-1.21-2-1.65-.55-.28-1.32,0-1.8-.29s-.56-1.1-.9-1.39c-.81-.72-1.82-.4-2.26-.83-.73-.72-.67-1.87-1.46-2.76-1.12-.51-2.33.11-3.45-.42-2-2.69-4-4.64-6.44-4.95-1.88-2-3.35-3.09-5.28-5-.67-.67-1.85-.86-2.55-1.51-.37-.35-.33-1.1-.71-1.55-1.44-1.69-4.11-1.56-3.85-4.09a8.07,8.07,0,0,1-5.6-2.9c2.64-1.29,5.13-.56,7.71-1.1-3.1-1-7-1.85-9.34-6.15,3,.12,5.83,2,8.82,2a15.51,15.51,0,0,1-7.8-6.87c3.27,1.46,6.46,3.93,9.79,4.53a42.45,42.45,0,0,1-7.79-6.87c3,1.08,7.15,5.1,10.68,5.92-.49-.66-1.69-2-2.42-3.16,4.95,3.79,10.3,5.8,15.65,8.44,4.23,2.08,7.88,5.16,11.91,7.33,2.4,1.3,5.79,2.95,8.62,4.61a.64.64,0,0,1,.84-.1c2.21-1.84,2.19-4.44,5-5.28,4,.89,2.7,6.77,6.46,9.27,2.76,1.83,11.39,2.09,14.76,2.4,2.54.23,5,.05,7.44.37,5.21.7,11.15,2.23,16.36,3.18,3.86.71,7.8-.64,11.25.49-2.78,1.7-5.42,1.45-8.09,1.73C404.65,466.59,411.3,467.17,417.05,468Z" fill-rule="evenodd"/>
    <path d="M452,39.58c4.3-.71,9.11,1.09,12.39-.29-3.78-1.19-10.42-1.74-11.55-4.49,1.25-.27,1.69.56,2.69.63-.3-1.63-2.46-.74-2.05-3.32,1.12.4,2.43,2.12,3.7.49-1.72-3.16-3.46-5.93-1.21-8.11.21,1.94.46,3.22,1.24,1.37a6.65,6.65,0,0,0,2.5,6.36c.11-1.42-1.24-3.92-.17-4.63,6.23,22.21,35,14.07,49.77,24.7,2.77-.29,5.05.08,8.18-.7,5.72,2.73,10.55-.59,16.29-1.91,17.44-4,43-3.28,44.88-18.59.67-.09.6.82,1.16.86.63-1,.12-2.92,1-3.77.74,1.22-1.18,2.64.45,3,.61-.75-.15-2.52,1.14-2.76,1.53,4.32-3,8.31-4.57,11,2.47-.88,5-4.09,6.64-4.1-.78,3-5.24,3.66-5.91,5.54-.16,1.43,2.34-.72,2.18.71-6.23.48-11.4,4.61-17.71,6.27-4.67,1.22-10,.69-14.11,2.61-.53.25-1.16,1.63-1.8,1.83-8,2.39-17.3.43-22.58,4.91,2.06,3.31,8,1.31,10.46,4.14-3.41,1-7.33,2.92-12,2.82-.63,2.06-1.22,1.27-2.08,3.42l-1,.15-.15-1c-1-2.09-6.65-2.36-6.15.4-1.2-1-2.62-1.74-3.57-3.1-5.05,2-7.38-.42-12-.8,3.7-1.76,8.87-2.44,11.12-5.28-5.23-4.14-11.56-2.18-18-6.12-1.6-.14-1.77.79-3,1-1.25-1.65-7.29-4.24-11.62-5-2.59-4-9.12-2.7-14-3.61.82-.59,2.51-.55,2.89-1.46-2.67-.85-7.89,1.72-9.85-.09,2.16-.66,5.83-.19,7-1.56-4,.28-6.94-.78-10.51-1C452.08,39.92,452.06,39.75,452,39.58Z" fill-rule="evenodd"/>
    <path d="M204,125.61c5.92,1.11,11.87-1.24,18.49-.65-5,2.19-11.55,1.39-17.92,2.55,4.34,1.51,10.69.21,14.65,1.23-3.89,1.59-11.92.27-17.43,1.11,3.11,1.12,7.55,1.12,10.5,2.37-27.49.93-51.4,7.53-71.59,17.92-1.21,7,6.26,6.73,7.89,11.37-4.84,1.81-11.52-2-15-1.27.1-.65-.38-.81-.24-1.5-7.92-1.72-17.57-4.57-17.23-14.36-7-3.82-15.69-5.16-23.64-8.27-1.57-.61-3-1.81-4.61-2.23-5.08-1.33-10.44-1.88-15.59-3.17-5.33-1.32-10.73-3.42-17.49-2.58,1.12-1.08,3.21-1,4.58-1.83-2.05-1.33-7.64-.29-11-.56,1.91-1.9,6.13-1.07,9-1.82-3.71-1.4-10.14-.51-13.86-1.91,3.62-.55,8.68.61,12.85.72-4.59-1.57-10.11-2.34-14.4-4.17,2.62-.62,5.24,1.7,8.33,1.81-1.3-1.85-4.25-2.31-5.95-3.82,3.78.21,7,3.88,11.81,4.32-1-1.87-3.25-2.7-4.42-4.43,4,1.25,6.41,5,11.29,6.11,5,1.11,10.13.9,15,1.64,16.48,2.51,28.32,9.49,40,15.55a8.32,8.32,0,0,0,3.48-1.92c4.55-.1,6.86,1.36,9.67,3.4,10.8-1.1,18.13-11,29.8-12.24,7.72-.83,15.46-2.16,22.78-3.24s12.93-4.25,18.65-6.9c-2.28,1.59-4.79,2.91-6.68,5,4.87.26,10.51-2.06,15.11-4.25,1.22-.59,2.74-2.06,3.78-1.16-3.89,2.51-8.7,3.93-13,5.91,6.62-.24,14.05-3.2,19.93-4.59C216.52,123.57,212.31,123.4,204,125.61Z" fill-rule="evenodd"/>
    <path d="M377.89,202.2a2.45,2.45,0,0,1-.43-1.72c-10.67-1-21.77,0-30.12-4.74-1.9-1.08-3.92-3.72-7.31-3,.57-2.77-7.45-4-12.48-4.73s-8.45-1.68-12.91-1.29c.14-3,5.25-3.68,5.59-3.88,4.8-7.5,14.75,2.42,21.95-2.15-1.38-3.64-2.74-7.3-5.17-9.89-1.31.31-1.56-.44-2.58-.43-4.51-6.39-8.92-12.89-9.9-22.81,1.94,1.92,3.41-.59,4.74,2.15a3,3,0,0,0,.86-1.29c2.36,2.56,4.87,2.32,6.45,5.59.86,0,.55-1.17,1.72-.86,4.47,5.72,10.37,10,13.34,17.22,2.43,1.59,3.64,4.4,5.6,6.45,9.84-12,27.74-15.87,33.13-32.27h.86c-.52,1.78,2.11,1.57,2.58.43.49.79.17,2.1.86,0,1.79.57-.46,2.43-.86,3.44,1,1.05.8-.64,2.15-.43v.86c-1,.14-1,1.33-1.72,1.72.19.64.55-.17,1.29,0-.74,8.74-7.31,13.69-11.18,18.07-1,1.14-1,2.94-1.72,3.45-.33.21-1-.28-.87-.43-2.74,3.38-4.4,7.71-7.74,11.18.36-1.45-2.32,2.6-3.44,5.17,1.17,3.41,5.82,3.36,7.31,6.45,2.73-.28,3.78-2.25,6.89-2.15.16,3.29,1.08,3.73,0,7.75-1.42.59-3.06.95-3.88,2.15Z" fill-rule="evenodd"/>
    <path d="M441.21,273.77c-.1.91-.19,1.81-.29,2.72-2.47,1.51-4.43,6.85-7.15,10.26-3.73,4.67-10.07,8.23-14.1,13.38-4.37,5.61-7.32,12.29-12.68,15.73-2.87,1.84-6.22,2.59-9.18,3.43.89,3.13,5.37,2.38,5.53,5-3.63,5.17-9.45,10.91-14.52,12.23-1-1.16.94-6.85-.11-9.38-4.79,9.48-14.48,12.9-24.79,15.55-8.1,5.58-16.77,10.48-27.77,12.48,8.32-12.16,20.76-20.87,33.75-27.27,5.22-2.58,11.24-3.87,14.23-9.51-2.5-4,0-14.6-2-17.29,4.62,2.84,7.2,5.41,12.32,8.47C413,301.36,419.79,278.49,441.21,273.77Z" fill-rule="evenodd"/>
  </g>
</svg>
