<?xml version="1.0" encoding="UTF-8"?>
<svg xmlns="http://www.w3.org/2000/svg" xmlns:xlink="http://www.w3.org/1999/xlink" viewBox="0 0 2751.99 322.81">
<path fill-rule="nonzero" fill="rgb(0%, 0%, 0%)" fill-opacity="1" d="M 1053.199219 2858.269531 C 1052.878906 2847.78125 1065.058594 2812.898438 1080.261719 2780.757812 C 1102.878906 2732.953125 1105.269531 2720.652344 1093.421875 2713.148438 C 1066.289062 2695.964844 1014.820312 2703.480469 979.09375 2729.84375 C 959.566406 2744.25 941.371094 2753.820312 938.664062 2751.109375 C 935.953125 2748.402344 945.90625 2727.792969 960.78125 2705.316406 C 991.195312 2659.355469 1048 2638.726562 1118.410156 2648.074219 C 1143.449219 2651.402344 1157.890625 2649.046875 1157.890625 2641.636719 C 1157.890625 2635.214844 1153.148438 2629.960938 1147.359375 2629.960938 C 1141.570312 2629.960938 1136.828125 2623.675781 1136.828125 2615.992188 C 1136.828125 2594.292969 1199.679688 2607.25 1239.71875 2637.207031 C 1258.671875 2651.386719 1282.191406 2661.445312 1291.980469 2659.558594 C 1336.289062 2651.027344 1383.980469 2523.402344 1416.109375 2327.394531 C 1440.699219 2177.363281 1453.378906 2191.949219 1292.109375 2184.765625 C 871.484375 2166.035156 564.230469 1964.949219 319.566406 1548.28125 C 286.429688 1491.839844 251.875 1439.539062 242.785156 1432.058594 C 218.914062 1412.410156 33.265625 1356.171875 15.183594 1363.109375 C -13.175781 1373.988281 -0.34375 1348.339844 41.464844 1310.570312 C 71.988281 1283 99.628906 1269.589844 145.5625 1260.109375 L 208.101562 1247.191406 L 214.527344 1200.320312 C 224.214844 1129.621094 257.765625 1083.75 320.957031 1054.820312 C 404.257812 1016.691406 487.210938 1011.808594 578.851562 1039.640625 C 620.628906 1052.328125 655.929688 1061.238281 657.289062 1059.441406 C 658.652344 1057.640625 668.078125 1016.828125 678.238281 968.75 C 734.695312 701.550781 893.664062 482.539062 1194.730469 257.179688 C 1329.03125 156.648438 1434.398438 88.769531 1542.550781 33.089844 C 1607.140625 -0.160156 1623.960938 -4.828125 1648.101562 3.769531 C 1685.238281 16.988281 1714.769531 57.230469 1722.558594 105.269531 L 1728.75 143.421875 L 1624.050781 197.199219 C 1497.140625 262.390625 1297.269531 392.230469 1188.058594 480.441406 C 1023.691406 613.191406 910.039062 779.648438 878.1875 934.28125 C 860.695312 1019.199219 861.546875 1094.390625 880.070312 1100.46875 C 887.746094 1102.988281 893.761719 1072.601562 897.625 1011.808594 C 905.003906 895.640625 924.875 831.53125 979.113281 748.859375 C 1065.058594 617.871094 1204.261719 487.480469 1394.75 359.53125 C 1477.769531 303.769531 1706.261719 177.160156 1723.878906 177.160156 C 1734.441406 177.160156 1736.980469 198.378906 1734.648438 267.328125 L 1731.609375 357.511719 L 1584.230469 418.429688 C 1356.460938 512.589844 1244.429688 583.429688 1133.058594 703.730469 C 1063.039062 779.359375 1021.738281 881.820312 1013.289062 1000.898438 C 1005.890625 1105.089844 1025.839844 1111.601562 1035.449219 1008.128906 C 1043.460938 921.988281 1063.480469 867.960938 1102.480469 827.25 C 1138.640625 789.488281 1251.941406 721.398438 1334.25 687.949219 C 1405.539062 658.988281 1685.539062 585.5 1693.660156 593.628906 C 1696.429688 596.390625 1689.070312 625.808594 1677.308594 658.980469 L 1655.921875 719.300781 L 1488.488281 752.628906 C 1252.351562 799.640625 1142.121094 853.078125 1100.53125 940.71875 C 1076.769531 990.78125 1086.519531 1013.460938 1111.730469 966.789062 C 1163.519531 870.890625 1228.03125 838.058594 1452.640625 793.320312 C 1530.808594 777.75 1605.421875 760.75 1618.441406 755.539062 C 1636.871094 748.179688 1642.128906 749.679688 1642.128906 762.320312 C 1642.128906 792.609375 1597.519531 882.46875 1582.480469 882.46875 C 1471.511719 882.46875 1119.378906 941.570312 1156.550781 953.960938 C 1168.25 957.859375 1386.75 928.710938 1531.601562 903.910156 C 1560.550781 898.960938 1585.621094 896.261719 1587.308594 897.910156 C 1589.011719 899.558594 1577.039062 928.730469 1560.71875 962.75 L 1531.058594 1024.589844 L 1341.839844 1025.109375 C 1145.558594 1025.660156 1063.140625 1038.070312 1063.140625 1067.101562 C 1063.140625 1087.121094 1093.160156 1086.589844 1166.578125 1065.238281 C 1276.789062 1033.199219 1558.519531 1057.558594 1926.359375 1130.910156 C 2027.679688 1151.121094 2133.949219 1174.539062 2162.5 1182.960938 C 2227.160156 1202.039062 2349.128906 1202.070312 2452.71875 1183.050781 C 2622.75 1151.808594 2892.03125 1104.660156 2938.460938 1097.980469 L 2987.339844 1090.960938 L 2994.808594 1145.300781 C 2998.921875 1175.179688 3000.609375 1201.191406 2998.570312 1203.101562 C 2996.53125 1205.011719 2945.121094 1214.148438 2884.320312 1223.410156 C 2823.53125 1232.679688 2700.359375 1252 2610.621094 1266.339844 C 2520.878906 1280.691406 2431.660156 1292.558594 2412.359375 1292.730469 C 2388.929688 1292.929688 2378.808594 1297.398438 2381.890625 1306.191406 C 2384.929688 1314.859375 2403.421875 1318.238281 2436.191406 1316.101562 C 2500.101562 1311.929688 2975.320312 1233.429688 2989.421875 1224.710938 C 3005.5 1214.769531 3002.570312 1287.839844 2985.21875 1329.359375 C 2977.03125 1348.980469 2960.78125 1370.128906 2949.109375 1376.371094 C 2937.449219 1382.621094 2862.429688 1397.320312 2782.421875 1409.050781 C 2617.53125 1433.230469 2408.070312 1468.269531 2335.390625 1483.839844 C 2291.039062 1493.339844 2282.941406 1500.058594 2248.339844 1556.121094 C 2227.351562 1590.121094 2187.769531 1637.691406 2160.390625 1661.839844 C 2061.851562 1748.710938 1984.429688 1774.121094 1778.558594 1787.140625 C 1599.589844 1798.46875 1536.710938 1791.710938 1424.480469 1749.070312 L 1348.941406 1720.371094 L 1341.980469 1660.308594 C 1336.871094 1616.300781 1328.21875 1593.871094 1309.609375 1576.390625 C 1276.640625 1545.429688 1277.300781 1533.039062 1311.210938 1545.941406 C 1326.070312 1551.578125 1359.039062 1556.199219 1384.480469 1556.199219 C 1421.378906 1556.199219 1436.148438 1562.039062 1457.480469 1585.039062 C 1481.488281 1610.941406 1484.210938 1611.75 1484.070312 1592.941406 C 1483.980469 1581.421875 1479.539062 1565.101562 1474.210938 1556.679688 C 1463.191406 1539.238281 1491.511719 1482.519531 1511.238281 1482.519531 C 1531.820312 1482.519531 1594.039062 1505.941406 1610.550781 1519.910156 C 1619.230469 1527.25 1653.828125 1541.199219 1687.429688 1550.910156 C 1793.378906 1581.5 1892.171875 1553.429688 1936.941406 1479.980469 C 1948.449219 1461.109375 1957.738281 1433.828125 1957.589844 1419.351562 C 1957.308594 1391.710938 1880.640625 1293.140625 1868.699219 1305.070312 C 1864.988281 1308.789062 1875.179688 1335.53125 1891.359375 1364.5 C 1920.539062 1416.769531 1920.628906 1417.480469 1902.371094 1455.769531 C 1863.53125 1537.21875 1725.609375 1557.96875 1634.671875 1496.039062 C 1569.921875 1451.949219 1529.28125 1438.089844 1504.160156 1451.53125 C 1487.128906 1460.648438 1478.421875 1459.460938 1463.539062 1446 C 1453.128906 1436.578125 1426.679688 1423.921875 1404.78125 1417.871094 C 1304.351562 1390.140625 1091.761719 1239.160156 1110.488281 1208.859375 C 1122.320312 1189.71875 1179.730469 1197.820312 1213.859375 1223.449219 C 1232.289062 1237.289062 1288.429688 1270.671875 1338.609375 1297.621094 C 1388.800781 1324.578125 1450.378906 1362.890625 1475.460938 1382.761719 C 1533.308594 1428.578125 1541.558594 1411.988281 1485.921875 1361.730469 C 1424.820312 1306.539062 1374.101562 1274 1273.691406 1225.609375 L 1184.199219 1182.5 L 1236.839844 1176.019531 C 1265.789062 1172.460938 1315.53125 1173.621094 1347.371094 1178.589844 C 1379.21875 1183.570312 1425.128906 1187.660156 1449.390625 1187.699219 C 1473.660156 1187.730469 1496.441406 1192.5 1500.019531 1198.289062 C 1503.589844 1204.070312 1526.378906 1208.859375 1550.640625 1208.929688 C 1668.160156 1209.25 1717.929688 1235.359375 1717.929688 1296.738281 C 1717.929688 1423.609375 1594.160156 1414.609375 1499.128906 1280.828125 C 1481.28125 1255.691406 1458.25 1233.5 1447.941406 1231.5 C 1430.238281 1228.070312 1430.289062 1229.699219 1448.820312 1261.488281 C 1476.21875 1308.480469 1594.949219 1417.679688 1627.519531 1425.859375 C 1642.390625 1429.589844 1673.058594 1427.101562 1695.660156 1420.328125 C 1725.96875 1411.25 1742.46875 1411.078125 1758.570312 1419.699219 C 1775.570312 1428.800781 1786.050781 1427.671875 1806 1414.589844 C 1843.390625 1390.101562 1837.429688 1378.25 1788.859375 1380.519531 L 1746.109375 1382.511719 L 1744.128906 1316.710938 C 1742.640625 1267.671875 1745.738281 1250.910156 1756.269531 1250.921875 C 1778.789062 1250.921875 1978.628906 1292.648438 2042.160156 1310.609375 C 2074 1319.609375 2115.808594 1336.53125 2135.070312 1348.199219 C 2164.679688 1366.148438 2169.039062 1373.679688 2163.328125 1397.019531 C 2152.300781 1442.128906 2114.570312 1489.980469 2046.011719 1545.820312 C 1944.910156 1628.171875 1900.839844 1643.550781 1780.089844 1638.621094 C 1693.21875 1635.078125 1668.800781 1629.730469 1606.730469 1600.609375 C 1528.910156 1564.109375 1482.820312 1555.460938 1504.339844 1581.390625 C 1511.039062 1589.460938 1557.800781 1609.589844 1608.269531 1626.128906 C 1684.429688 1651.101562 1717.929688 1656.210938 1805.300781 1656.210938 C 1898.390625 1656.210938 1917.269531 1652.921875 1968.46875 1627.761719 C 2051.359375 1587.019531 2140.800781 1503.429688 2173.929688 1435.71875 C 2218.25 1345.121094 2196.898438 1324.480469 2009.660156 1276.988281 C 1693.621094 1196.828125 1360.921875 1139.691406 1264.871094 1149.078125 C 1150.390625 1160.28125 989.121094 1205.191406 958.671875 1234.359375 C 943.121094 1249.261719 923.140625 1261.449219 914.269531 1261.449219 C 892.628906 1261.449219 792.949219 1332.761719 687.261719 1423.851562 C 639.75 1464.800781 567.507812 1519.390625 526.726562 1545.148438 C 485.941406 1570.910156 452.574219 1595.179688 452.574219 1599.070312 C 452.574219 1611.640625 661.78125 1791.828125 723.5 1832.410156 C 814.152344 1892.027344 903.421875 1918.335938 1010.511719 1917.007812 C 1107.21875 1915.804688 1216.898438 1887.472656 1262.78125 1851.828125 C 1287.601562 1832.550781 1289.871094 1832.480469 1315.410156 1850.058594 C 1395.859375 1905.410156 1559.480469 1945.371094 1705.289062 1945.273438 C 1796.371094 1945.191406 1824.539062 1941.457031 1905.308594 1918.636719 C 1983.160156 1896.640625 1749.589844 2076.074219 1636.75 2124.949219 C 1607.871094 2137.464844 1555.808594 2153.578125 1521.070312 2160.761719 L 1457.910156 2173.820312 L 1451.449219 2278.199219 C 1444.011719 2398.523438 1410.070312 2541.042969 1373.019531 2607.605469 C 1358.910156 2632.941406 1347.371094 2655.574219 1347.371094 2657.902344 C 1347.371094 2660.226562 1376.980469 2659.339844 1413.171875 2655.929688 C 1487.621094 2648.917969 1530.121094 2667.167969 1557.050781 2717.710938 C 1578.210938 2757.417969 1566.570312 2761.527344 1520.828125 2730.488281 C 1479.160156 2702.207031 1424.25 2695.570312 1388.820312 2714.535156 C 1369.199219 2725.035156 1369.609375 2727.660156 1400.628906 2789.089844 C 1439.601562 2866.296875 1436.339844 2891.304688 1394.699219 2834.519531 C 1344.441406 2765.964844 1312.890625 2735.234375 1292.769531 2735.234375 C 1276.460938 2735.234375 1273.679688 2744.421875 1273.679688 2798.394531 C 1273.679688 2884.519531 1252.160156 2882.109375 1226.710938 2793.132812 C 1215.941406 2755.496094 1202.539062 2724.707031 1196.921875 2724.707031 C 1185 2724.707031 1110.410156 2799.941406 1076.890625 2845.765625 C 1058.859375 2870.402344 1053.660156 2873.152344 1053.199219 2858.273438 Z M 1605.289062 1733.980469 C 1570.550781 1716.210938 1527.910156 1688.28125 1510.539062 1671.929688 C 1493.171875 1655.578125 1458.53125 1636.800781 1433.558594 1630.199219 C 1408.589844 1623.601562 1380.171875 1615.328125 1370.398438 1611.828125 C 1357.648438 1607.261719 1359.839844 1613.371094 1378.148438 1633.460938 C 1399.679688 1657.078125 1490.390625 1706.320312 1600.019531 1753.898438 C 1659.570312 1779.738281 1663.761719 1763.898438 1605.289062 1733.980469 Z M 477.316406 1347.308594 C 516.113281 1306.808594 522.855469 1255.429688 495.179688 1211.179688 C 457.332031 1150.660156 402.859375 1141.109375 357.019531 1186.941406 C 315.871094 1228.089844 314.28125 1291.128906 353.101562 1342.039062 C 388.558594 1388.519531 435.902344 1390.53125 477.316406 1347.308594 Z M 369.121094 1328.449219 C 344.789062 1297.519531 341.15625 1254.878906 359.429688 1214.769531 C 391.40625 1144.589844 494.683594 1189.261719 494.683594 1273.28125 C 494.683594 1300.78125 439.457031 1356.191406 412.039062 1356.191406 C 400.433594 1356.191406 381.121094 1343.710938 369.121094 1328.449219 Z M 229.554688 1316.710938 C 225.511719 1295.378906 149.078125 1285.089844 119.144531 1301.839844 C 102.945312 1310.910156 136.992188 1321.269531 224.382812 1333.878906 C 229.148438 1334.570312 231.476562 1326.839844 229.554688 1316.710938 Z M 1668.449219 1287.761719 C 1668.449219 1275.261719 1626.148438 1267.769531 1603.851562 1276.328125 C 1595.21875 1279.640625 1591.269531 1287.390625 1595.078125 1293.539062 C 1603.628906 1307.378906 1668.449219 1302.269531 1668.449219 1287.761719 Z M 1600.019531 1914.226562 C 1526.390625 1902.445312 1375.429688 1854.910156 1336.539062 1831.261719 L 1306.738281 1813.128906 L 1327.570312 1780.21875 L 1348.410156 1747.308594 L 1403.160156 1771.441406 C 1481.660156 1806.050781 1555.441406 1819.378906 1668.550781 1819.378906 C 1799.578125 1819.378906 1977.058594 1799.660156 2013.210938 1781.078125 C 2036.648438 1769.03125 2042.160156 1768.839844 2042.160156 1780.070312 C 2042.160156 1804.648438 1954.089844 1881.171875 1906.5 1897.933594 C 1850.191406 1917.769531 1679.019531 1926.867188 1600.019531 1914.226562 Z M 936.816406 1886.617188 C 874.546875 1875.289062 779.148438 1834.578125 713.816406 1791.441406 C 630.480469 1736.429688 481.675781 1600.308594 490.054688 1586.75 C 501.195312 1568.730469 529.496094 1577.371094 572.550781 1611.941406 C 673.644531 1693.121094 782.644531 1754.601562 872.933594 1781.371094 C 936.175781 1800.121094 1063.140625 1804.410156 1063.140625 1787.800781 C 1063.140625 1782.011719 1039 1777.269531 1009.5 1777.269531 C 902.027344 1777.269531 758.324219 1717.890625 623.378906 1617.730469 C 581.6875 1586.789062 547.519531 1555.628906 547.449219 1548.511719 C 547.367188 1541.378906 558.613281 1532.710938 572.417969 1529.25 C 598.195312 1522.78125 653.785156 1546.320312 726.761719 1594.621094 C 772.683594 1625 924.984375 1689.230469 971.5 1697.820312 C 991.050781 1701.429688 963.789062 1684.089844 906.695312 1656.609375 C 795.539062 1603.089844 642.0625 1514.660156 642.0625 1504.128906 C 642.0625 1500.300781 657.75 1481.960938 676.925781 1463.378906 L 711.789062 1429.589844 L 762.089844 1475.769531 C 831.445312 1539.441406 950.726562 1605.480469 1071.820312 1647.21875 C 1226.199219 1700.441406 1254.109375 1695.691406 1256.789062 1615.699219 C 1258.261719 1571.5 1239.691406 1569.089844 1225.378906 1611.621094 C 1219.078125 1630.359375 1205.960938 1647.230469 1196.238281 1649.121094 C 1186.519531 1651.019531 1126.449219 1635.191406 1062.75 1613.96875 C 936.46875 1571.890625 848.625 1519.941406 786.234375 1450.441406 C 753.824219 1414.339844 749.042969 1403.660156 759.601562 1390.929688 C 779.09375 1367.441406 827.179688 1381.839844 889.285156 1429.75 C 951.949219 1478.101562 995.628906 1494.921875 1105.25 1512.910156 C 1276.5 1541.03125 1265.859375 1537.058594 1291.601562 1582.519531 C 1307.691406 1610.929688 1315.5 1642.191406 1315.621094 1678.609375 C 1315.941406 1783.628906 1271.480469 1839.53125 1165.25 1867.609375 C 1104.941406 1883.554688 978.023438 1894.113281 936.816406 1886.617188 Z M 1310.53125 1504.109375 C 1298.949219 1499.441406 1265.789062 1497.859375 1236.839844 1500.621094 C 1130.960938 1510.679688 958.597656 1453.558594 878.917969 1382.019531 L 826.285156 1334.761719 L 851.136719 1313.890625 C 887.890625 1283.039062 909.722656 1287.691406 992.996094 1344.160156 C 1075.238281 1399.941406 1191.449219 1465.210938 1228.941406 1476.679688 C 1266.078125 1488.050781 1257.53125 1462.550781 1218.421875 1445.289062 C 1160.371094 1419.660156 986.992188 1309.621094 975.191406 1290.910156 C 958.289062 1264.121094 994.046875 1229.859375 1038.921875 1229.859375 C 1067.96875 1229.859375 1084.75 1240.121094 1129.390625 1285.128906 C 1195.28125 1351.570312 1342.980469 1434.820312 1412.921875 1444.941406 C 1471.429688 1453.421875 1478.328125 1460.691406 1456.871094 1491.320312 C 1443.859375 1509.898438 1430.859375 1513.960938 1386.25 1513.359375 C 1356.179688 1512.949219 1322.109375 1508.789062 1310.53125 1504.109375 Z M 2186.898438 1169.691406 C 2101.539062 1156.761719 2211.859375 1117.519531 2505.351562 1056.421875 C 2577.71875 1041.359375 2690.019531 1017.058594 2754.910156 1002.421875 C 2909.179688 967.628906 2934.878906 970.28125 2964.960938 1024.070312 C 2977.75 1046.949219 2986.488281 1068.460938 2984.378906 1071.871094 C 2982.269531 1075.289062 2962.449219 1079.261719 2940.328125 1080.699219 C 2918.210938 1082.148438 2775.800781 1104.460938 2623.871094 1130.28125 C 2371.480469 1173.171875 2270.210938 1182.308594 2186.898438 1169.691406 Z M 1086.949219 792.609375 C 1109.339844 749.28125 1213.429688 646.871094 1284.210938 598.539062 C 1359.511719 547.128906 1444.269531 504.78125 1599.921875 440.800781 C 1723.328125 390.070312 1726.351562 389.410156 1726.351562 412.828125 C 1726.351562 465.070312 1701.550781 557.371094 1685.320312 565.5 C 1676.039062 570.140625 1628.179688 582.191406 1578.96875 592.261719 C 1368.859375 635.269531 1223 694.300781 1129.410156 774.210938 C 1074.691406 820.941406 1071.628906 822.269531 1086.949219 792.609375 Z M 1086.949219 792.609375 "/>
</svg>
